<?xml version="1.0" ?><!DOCTYPE svg  PUBLIC '-//W3C//DTD SVG 1.1//EN'  'http://www.w3.org/Graphics/SVG/1.1/DTD/svg11.dtd'><svg enable-background="new 0 0 300 300" height="300px" version="1.1" viewBox="0 0 300 300" width="300px" xml:space="preserve" xmlns="http://www.w3.org/2000/svg" xmlns:xlink="http://www.w3.org/1999/xlink"><g id="Layer_1" fill="#000" fill-opacity=".8"><g><path d="M283.916,67.468c-0.017-0.026-0.033-0.052-0.05-0.078c-0.14-0.278-0.307-0.54-0.5-0.783    c-5.207-8.125-10.106-16.375-15.904-24.115c-8.239-10.999-17.488-21.145-27.436-30.616c-4.69-4.466-13.102-3.811-19.287-4.655    c-5.954-0.813-11.908-1.617-17.887-2.233c-13.526-1.395-27.077-0.984-40.645-0.613c-14.337,0.392-28.67,0.966-42.998,1.615    c-7.383,0.334-14.765,0.7-22.146,1.079c-6.22,0.32-12.231,0.23-17.994,2.823c-5.129,2.308-8.852,7.451-12.877,11.168    c-5.17,4.774-9.754,10.313-14.33,15.648c-8.965,10.454-18.126,20.751-28.683,29.634c-0.247,0.172-0.471,0.366-0.673,0.58    c-0.021,0.017-0.041,0.035-0.061,0.052c-1.641,1.362-1.723,3.428-1.049,5.213c0.217,0.705,0.576,1.357,1.079,1.896    c13.917,17.477,24.237,37.438,36.525,56.025c10.973,16.597,23.837,32.405,31.516,50.94c0.362,0.873,0.886,1.555,1.504,2.071    c-2.338,3.322-4.367,6.936-6.027,10.84c-7.842,18.44-6.974,42.541,0.044,61.098c3.628,9.595,9.602,18.317,17.932,24.411    c9.074,6.638,19.988,9.517,30.982,10.975c22.776,3.02,48.75-2.954,65.17-19.694c20.648-21.05,22.623-59.125,9.365-84.567    c-3.455-6.63-8.342-12.13-14.131-16.563c28.724-32.518,54.148-68.28,87.776-96.091C284.792,72.156,285.043,69.215,283.916,67.468z     M69.525,31.891c4.79-5.139,11.076-13.591,18.567-14.351c10.287-1.043,20.79-1.077,31.118-1.551    c20.367-0.935,40.753-1.735,61.141-2.014c17.647-0.242,34.986,2.631,52.432,4.83c0.001,0.001,0.002,0.002,0.003,0.003    c-4.031-0.189-8.06-0.45-12.092-0.64c-6.109-0.288-12.598,0.843-18.604-0.446c-0.786-0.169-1.12,1.036-0.332,1.205    c4.953,1.063,10.066,0.328,15.089,0.372c5.775,0.051,11.534,0.541,17.303,0.811c0.756,0.728,1.507,1.459,2.255,2.195    c-10.476,0.657-20.984-0.846-31.48-0.938c-0.807-0.007-0.806,1.243,0,1.25c10.899,0.096,21.783,1.668,32.651,0.847    c1.149,1.143,2.286,2.296,3.414,3.458c-4.061-0.041-8.101-0.704-12.159-1.079c-6.951-0.642-13.815,0.593-20.74-0.788    c-0.787-0.157-1.122,1.047-0.332,1.205c5.912,1.179,11.844,0.75,17.833,0.689c5.584-0.057,11.039,1.28,16.594,1.2    c0.588,0.614,1.165,1.238,1.746,1.858c-11.113-0.063-22.226-0.294-33.34-0.309c-0.806-0.001-0.806,1.249,0,1.25    c11.507,0.015,23.011,0.264,34.517,0.316c0.926,1.001,1.84,2.013,2.748,3.029c-11.23,1.209-22.649-1.767-33.765,0.76    c-0.786,0.179-0.453,1.384,0.332,1.205c11.315-2.572,22.995,0.563,34.438-0.845c1.177,1.333,2.34,2.679,3.485,4.041    c-11.981,1.13-24.104-0.126-36.09-0.756c-0.806-0.042-0.802,1.208,0,1.25c12.316,0.647,24.744,1.92,37.042,0.658    c1.328,1.601,2.631,3.224,3.914,4.864c-12.625,1.081-25.31-0.685-37.956-0.772c-0.807-0.005-0.806,1.245,0,1.25    c12.962,0.09,25.929,1.889,38.86,0.681c0.234,0.304,0.477,0.603,0.71,0.909c0.431,0.565,0.845,1.141,1.265,1.712    c-11.767,1.433-23.68,0.182-35.502,0.115c-0.807-0.004-0.806,1.246,0,1.25c12.115,0.068,24.299,1.338,36.347-0.221    c0.84,1.168,1.66,2.347,2.467,3.536c-5.367,0.613-10.817,0.025-16.214-0.453c-7.474-0.661-15.068,1.137-22.434-0.089    c-0.788-0.131-1.126,1.073-0.332,1.205c6.99,1.165,14.063-0.537,21.124-0.004c6.222,0.469,12.467,1.302,18.633,0.504    c0.808,1.209,1.606,2.425,2.394,3.648c-4.704,0.233-9.607-0.435-14.18-0.265c-7.902,0.294-15.922,1.12-23.639-1.088    c-0.776-0.223-1.105,0.984-0.332,1.205c7.29,2.087,14.904,1.558,22.39,1.204c5.33-0.252,11.093,0.588,16.551,0.171    c0.74,1.161,1.474,2.325,2.206,3.492c-12.614,1.086-25.361-1.634-37.98-1.761c-0.807-0.008-0.806,1.242,0,1.25    c12.88,0.129,25.851,2.891,38.713,1.68c0.124,0.199,0.248,0.397,0.373,0.596c-41.13,0.786-82.259-2.489-123.399-2.19    c-22.319,0.162-44.754-0.204-67.038,1.118c-13.693,0.812-27.492,1.145-41.251,1.279C49.766,54.833,59.194,42.975,69.525,31.891z     M202.272,249.735c-2.437,0.043-4.871,0.132-7.305,0.241c0.694-1.271,1.338-2.571,1.92-3.904c2.364-0.088,4.722-0.28,7.07-0.604    C203.453,246.911,202.892,248.334,202.272,249.735z M180.858,272.813c-5.112,0.109-10.228,0.021-15.343-0.045    c2.484-0.721,4.861-1.569,7.089-2.532c0.652-0.282,1.292-0.577,1.922-0.881c4.022,0.08,8.014,0.163,11.982-0.082    C184.705,270.57,182.817,271.749,180.858,272.813z M140.252,174.738c0.041-0.006,0.076-0.019,0.115-0.027    c0.071-0.002,0.143-0.004,0.218-0.018c7.415-1.351,15.226-1.158,22.623,0.518c-4.983,0.077-9.967,0.146-14.951,0.154    c-0.806,0.001-0.806,1.251,0,1.25c6.442-0.011,12.882-0.119,19.324-0.223c2.054,0.648,4.06,1.417,6,2.307    c-3.321,0-6.642,0-9.963,0c-7.484-1.863-15.427-2.08-22.8-0.752c-22.209,3.031-36.723,19.706-38.163,41.677    c-1.354,20.672,6.596,41.369,27.746,47.71c7.674,2.3,16.095,2.94,24.267,1.876c0.046,0.182,0.173,0.336,0.423,0.383    c3.964,0.737,8.075,0.325,12.159,0.002c-5.169,1.751-10.766,2.868-16.45,3.265c-0.941,0.036-1.883,0.08-2.824,0.135    c-17.183,0.462-34.622-5.795-42.886-21.402c-9.978-18.844-8.326-46.859,6.265-62.732    C118.852,180.703,129.42,176.193,140.252,174.738z M189.74,191.122c-1.504-0.017-3.008-0.041-4.51-0.061    c-0.846-0.946-1.739-1.846-2.685-2.688c-0.845-0.753-1.731-1.452-2.636-2.127c1.724-0.019,3.447-0.043,5.17-0.087    C186.767,187.677,188.326,189.332,189.74,191.122z M195.063,244.878c-1.23,0.019-2.462,0.019-3.693-0.008    c0.458-0.947,0.886-1.917,1.277-2.91c1.166,0.009,2.333,0.017,3.499,0.02c-0.012,0.034-0.021,0.07-0.032,0.104    C195.798,243.038,195.44,243.965,195.063,244.878z M183.15,260.87c-1.827-0.004-3.651-0.072-5.47-0.206    c1.713-1.182,3.342-2.479,4.869-3.896c1.578,0.07,3.157,0.149,4.735,0.215C185.999,258.37,184.611,259.66,183.15,260.87z     M188.343,267.89c-3.816,0.361-7.655,0.358-11.514,0.274c1.107-0.608,2.176-1.253,3.206-1.932    c3.713-0.093,7.418-0.302,11.109-0.723C190.242,266.343,189.303,267.131,188.343,267.89z M171.2,268.095    c-4.41,0.143-8.941,0.922-13.316,0.601c3.014-0.564,5.974-1.363,8.829-2.407c2.749,0.01,5.499,0.024,8.249,0.013    C173.736,266.943,172.486,267.548,171.2,268.095z M142.147,182.77c10.207-1.839,20.874-0.127,30.084,4.595    c10.681,5.475,15.668,14.763,17.757,26.202c2.105,11.532,0.478,23.861-5.821,33.843c-6.66,10.555-19.169,15.452-31.083,16.803    c-10.583,1.2-22.436-0.311-31.442-6.292c-9.147-6.076-12.835-17.705-13.851-28.088c-0.997-10.204,0.123-20.778,5.489-29.664    C119.473,189.914,130.59,184.346,142.147,182.77z M206.614,235.041c-2.106,0.175-4.216,0.206-6.327,0.175    c0.397-1.946,0.698-3.927,0.904-5.934c2.046,0,4.092,0,6.138,0C207.173,231.213,206.932,233.134,206.614,235.041z     M197.935,235.166c-1.056-0.029-2.113-0.062-3.17-0.088c0.436-1.896,0.77-3.833,0.998-5.796c1.012,0,2.023,0,3.036,0    C198.602,231.256,198.322,233.221,197.935,235.166z M194.467,236.317c1.066,0.024,2.132,0.054,3.197,0.081    c-0.323,1.458-0.701,2.904-1.136,4.336c-1.139-0.003-2.278-0.011-3.417-0.021C193.628,239.284,194.082,237.817,194.467,236.317z     M194.123,207.891c1.084-0.032,2.167-0.077,3.248-0.142c0.284,1.232,0.544,2.472,0.759,3.718    c-1.074-0.032-2.142-0.127-3.195-0.313C194.7,210.053,194.425,208.967,194.123,207.891z M199.888,207.564    c2.04-0.174,4.074-0.415,6.103-0.736c0.265,1.417,0.491,2.839,0.682,4.259c-2.001,0.097-4.027,0.287-6.045,0.362    C200.415,210.135,200.176,208.836,199.888,207.564z M205.759,205.605c-2.052,0.326-4.11,0.568-6.174,0.738    c-0.414-1.656-0.897-3.273-1.456-4.848c2.159-0.18,4.314-0.408,6.467-0.677C205.042,202.397,205.431,203.996,205.759,205.605z     M196.544,204.476c0.191,0.678,0.368,1.36,0.539,2.044c-1.105,0.063-2.213,0.104-3.321,0.133    c-0.505-1.637-1.094-3.234-1.761-4.785c1.211-0.045,2.42-0.105,3.628-0.185C195.961,202.595,196.274,203.521,196.544,204.476z     M169.777,265.051c2.159-0.949,4.245-2.041,6.23-3.285c1.863,0.175,3.732,0.288,5.605,0.329c-1.401,1.061-2.871,2.041-4.396,2.946    C174.737,265.068,172.257,265.063,169.777,265.051z M183.77,255.581c1.258-1.267,2.435-2.622,3.527-4.063    c1.454-0.041,2.907-0.089,4.361-0.152c-1.01,1.558-2.125,3.028-3.324,4.424C186.813,255.733,185.29,255.655,183.77,255.581z     M188.229,250.248c0.348-0.499,0.689-1.003,1.017-1.521c0.534-0.847,1.028-1.729,1.502-2.629c1.256,0.032,2.513,0.044,3.768,0.03    c-0.621,1.368-1.315,2.686-2.071,3.954C191.039,250.146,189.634,250.202,188.229,250.248z M200.03,236.446    c2.126,0.031,4.249,0.005,6.37-0.153c-0.257,1.377-0.559,2.745-0.904,4.102c-2.199,0.217-4.408,0.301-6.62,0.328    C199.313,239.319,199.701,237.895,200.03,236.446z M207.414,228.032c-2.033,0-4.067,0-6.102,0c0.117-1.412,0.187-2.837,0.211-4.27    c2.011,0.058,4.021,0.109,6.032,0.146C207.547,225.285,207.501,226.66,207.414,228.032z M198.921,228.032    c-1.008,0-2.017,0-3.024,0c0.136-1.455,0.218-2.92,0.24-4.39c0.992,0.015,1.984,0.029,2.977,0.055    C199.097,225.145,199.036,226.591,198.921,228.032z M196.134,222.393c-0.009-1.356-0.067-2.714-0.173-4.067    c1.001,0.019,2.002,0.038,3.003,0.064c0.093,1.351,0.138,2.704,0.147,4.058C198.119,222.422,197.127,222.407,196.134,222.393z     M195.855,217.073c-0.156-1.549-0.382-3.088-0.667-4.611c1.036,0.156,2.083,0.231,3.136,0.253    c0.227,1.468,0.404,2.942,0.534,4.422C197.857,217.111,196.856,217.092,195.855,217.073z M201.162,215.42    c-0.095-0.922-0.206-1.834-0.334-2.737c2.004-0.082,4.016-0.266,6.005-0.354c0.204,1.682,0.361,3.353,0.485,5.005    c-2-0.03-4-0.077-6-0.133C201.272,216.607,201.224,216.014,201.162,215.42z M204.242,199.609    c-2.183,0.269-4.368,0.491-6.557,0.667c-0.43-1.116-0.903-2.207-1.413-3.276c2.333-0.097,4.665-0.194,6.999-0.271    C203.621,197.678,203.945,198.639,204.242,199.609z M195.161,200.448c-1.238,0.076-2.479,0.13-3.72,0.169    c-0.544-1.166-1.135-2.302-1.773-3.401c1.313-0.03,2.627-0.062,3.939-0.111C194.172,198.185,194.695,199.295,195.161,200.448z     M188.929,195.982c-0.807-1.279-1.687-2.498-2.63-3.658c1.463,0.02,2.927,0.041,4.391,0.052c0.811,1.118,1.563,2.288,2.257,3.505    C191.607,195.929,190.268,195.955,188.929,195.982z M178.195,185.018c-0.99-0.662-2.018-1.267-3.063-1.844    c2.041-0.016,4.081-0.03,6.12-0.063c0.827,0.589,1.64,1.197,2.422,1.841C181.85,184.99,180.022,185.007,178.195,185.018z     M172.747,181.948c-1.586-0.755-3.216-1.424-4.885-1.999c2.754,0,5.508,0,8.262,0c1.139,0.604,2.247,1.254,3.326,1.945    C177.216,181.918,174.98,181.927,172.747,181.948z M192.639,264.067c-3.56,0.476-7.135,0.733-10.719,0.861    c1.224-0.896,2.386-1.843,3.491-2.835c3.277-0.084,6.549-0.375,9.789-0.849C194.379,262.225,193.529,263.17,192.639,264.067z     M196.358,259.804c-3.153,0.517-6.347,0.847-9.553,0.988c1.207-1.18,2.33-2.423,3.385-3.714c2.776,0.062,5.548,0.015,8.307-0.281    C197.82,257.839,197.104,258.837,196.358,259.804z M200.675,253.08c-0.424,0.811-0.873,1.596-1.337,2.367    c-2.716,0.36-5.449,0.453-8.188,0.417c1.124-1.476,2.159-3.012,3.096-4.607c2.486-0.113,4.973-0.206,7.462-0.259    C201.377,251.698,201.034,252.393,200.675,253.08z M204.402,244.152c-2.32,0.349-4.653,0.556-6.991,0.657    c0.378-0.934,0.732-1.879,1.058-2.838c2.232-0.022,4.46-0.103,6.68-0.303C204.917,242.502,204.669,243.33,204.402,244.152z     M201.529,222.513c-0.002-1.348-0.045-2.701-0.127-4.061c2.001,0.056,4.003,0.103,6.004,0.132c0.087,1.357,0.14,2.716,0.154,4.075    C205.55,222.623,203.539,222.57,201.529,222.513z M202.8,195.494c-2.379,0.082-4.757,0.183-7.135,0.28    c-0.6-1.164-1.255-2.295-1.96-3.396c2.527-0.018,5.051-0.094,7.565-0.292C201.824,193.198,202.337,194.334,202.8,195.494z     M192.894,191.14c-1.241-1.794-2.646-3.491-4.201-5.1c2.84-0.106,5.679-0.245,8.515-0.44c0.08,0.103,0.165,0.2,0.244,0.304    c1.207,1.572,2.263,3.245,3.203,4.987C198.075,191.077,195.486,191.136,192.894,191.14z M196.246,184.405    c-2.917,0.19-5.836,0.327-8.758,0.425c-0.654-0.623-1.337-1.229-2.045-1.819c3.014-0.1,6.021-0.272,9.021-0.587    C195.075,183.068,195.673,183.725,196.246,184.405z M183.949,181.819c-0.827-0.63-1.679-1.245-2.575-1.834    c-0.02-0.013-0.039-0.023-0.059-0.036c3.538,0,7.077,0,10.616,0c0.483,0.437,0.958,0.883,1.423,1.34    C190.228,181.587,187.091,181.739,183.949,181.819z M179.289,178.699c-1.513-0.885-3.076-1.687-4.679-2.409    c4.205-0.056,8.41-0.09,12.615-0.079c1.124,0.786,2.214,1.614,3.265,2.488C186.756,178.699,183.022,178.699,179.289,178.699z     M158.938,156.002c-7.553-0.756-15.111-0.476-22.136,0.82c-0.057,0.011-0.108,0.026-0.163,0.038    c-2.758,0.417-5.476,0.98-8.139,1.687c-2.753-4.491-3.347-10.664-4.288-15.657c-1.366-7.246-2.703-14.37-4.727-21.464    c-4.613-16.167-8.243-32.65-14.975-48.083c13.591-0.229,27.195-0.172,40.775-0.292c16.053-0.142,32.104,0.267,48.152,0.777    c-5.195,12.438-11.095,24.661-15.274,37.467c-2.382,7.296-4.201,14.449-7.411,21.499c-3.518,7.727-7.621,15.172-11.569,22.683    C159.09,155.652,159.01,155.827,158.938,156.002z M67.636,125.06C56.695,108.726,47.327,91.434,35.9,75.459    c14.236-0.103,28.532-0.386,42.703-1.209c5.02-0.292,10.045-0.495,15.074-0.649c0.577,1.181,1.126,2.372,1.659,3.569    c-8.52,0.541-17.093-0.588-25.578,0.885c-0.793,0.138-0.456,1.342,0.332,1.205c8.541-1.483,17.181-0.327,25.762-0.896    c0.335,0.775,0.666,1.551,0.985,2.332c-8.173,0.627-16.402,0.28-24.58,1.004c-0.796,0.07-0.803,1.321,0,1.25    c8.34-0.737,16.727-0.392,25.058-1.056c0.446,1.124,0.878,2.252,1.295,3.387c-7.88,0.449-15.789,0.114-23.687,0.086    c-0.806-0.003-0.806,1.247,0,1.25c8.049,0.029,16.11,0.374,24.14-0.116c0.333,0.928,0.652,1.86,0.968,2.794    c-7.44,0.831-14.955,0.439-22.44,0.405c-0.806-0.004-0.806,1.246,0,1.25c7.626,0.035,15.27,0.414,22.843-0.452    c0.57,1.724,1.116,3.457,1.642,5.197c-7.146-0.601-14.308-0.661-21.485-0.662c-0.806,0-0.806,1.25,0,1.25    c7.307,0.002,14.598,0.06,21.872,0.691c0.366,1.231,0.722,2.466,1.072,3.702c-7.205-0.064-14.406-0.288-21.611-0.31    c-0.806-0.002-0.806,1.248,0,1.25c7.322,0.022,14.641,0.254,21.962,0.313c0.372,1.33,0.738,2.662,1.098,3.995    c-7.104,0.461-14.289-0.793-21.394-0.892c-0.807-0.011-0.805,1.239,0,1.25c7.229,0.101,14.505,1.345,21.721,0.854    c0.229,0.856,0.457,1.713,0.684,2.569c-6.901,0.598-13.814-0.261-20.739-0.34c-0.807-0.009-0.806,1.241,0,1.25    c7.042,0.081,14.049,0.919,21.059,0.298c0.313,1.188,0.627,2.375,0.941,3.562c-6.31,0.549-12.669-0.054-19-0.11    c-0.806-0.007-0.806,1.243,0,1.25c6.448,0.058,12.903,0.645,19.321,0.072c0.295,1.117,0.593,2.232,0.893,3.347    c-6.023,0.076-12.087,0.904-18.048-0.313c-0.787-0.161-1.122,1.044-0.332,1.205c6.118,1.25,12.316,0.423,18.5,0.355    c0.077-0.001,0.141-0.022,0.203-0.043c0.385,1.419,0.776,2.835,1.174,4.248c-5.839,1.401-12.098-1.247-17.876,0.902    c-0.749,0.278-0.425,1.487,0.332,1.205c5.767-2.145,12.03,0.511,17.887-0.903c0.146,0.51,0.288,1.021,0.436,1.529    c0.188,0.648,0.362,1.299,0.533,1.952c-5.666-0.258-11.339-0.155-17.022-0.139c-0.806,0.002-0.806,1.252,0,1.25    c5.79-0.016,11.571-0.124,17.343,0.152c0.238,0.962,0.46,1.928,0.67,2.896c-5.114,0.196-10.229,0.351-15.346,0.368    c-0.806,0.003-0.806,1.253,0,1.25c5.208-0.018,10.412-0.177,15.615-0.378c0.326,1.577,0.625,3.161,0.914,4.747    c-4.614,0.18-9.243,0.061-13.862,0.047c-0.806-0.002-0.806,1.248,0,1.25c4.698,0.014,9.397,0.121,14.083-0.073    c0.191,1.065,0.382,2.131,0.572,3.196c-4.544-0.424-9.138-1.068-12.971,1.046c-0.706,0.389-0.075,1.469,0.631,1.079    c3.161-1.744,7.595-0.97,11.044-0.763c0.518,0.031,1.038,0.063,1.56,0.093c0.103,0.565,0.205,1.13,0.312,1.694    c0.186,0.986,0.37,2.008,0.564,3.046c-4.371,0.185-8.768-0.022-13.129-0.235c-0.806-0.04-0.802,1.211,0,1.25    c4.445,0.217,8.917,0.414,13.364,0.215c0.187,0.959,0.387,1.927,0.61,2.893c-3.758,0.294-7.545,0.308-11.307,0.309    c-0.806,0-0.806,1.25,0,1.25c3.864-0.001,7.747-0.026,11.602-0.339c0.242,0.953,0.511,1.897,0.816,2.824    c-3.774,0.44-7.68,0.303-11.252-0.379c-0.788-0.15-1.124,1.054-0.332,1.205c3.822,0.73,7.987,0.87,12.005,0.375    c0.3,0.805,0.63,1.591,1.001,2.349c-3.559,0.589-7.259,0.4-10.841,0.382c-0.806-0.004-0.806,1.246,0,1.25    c2.588,0.014,5.234,0.104,7.849-0.05c-6.306,3.045-12.065,7.032-17.014,11.925C90.674,157.12,78.594,141.419,67.636,125.06z     M139.171,280.86c-10.864-0.719-22.544-3.757-31.075-10.794c-7.993-6.593-12.505-16.129-15.031-25.98    c-3.792-14.787-3.824-33.223,2.542-47.311c7.677-16.987,24.32-27.737,42.525-30.132c0.176-0.023,0.346-0.056,0.512-0.093    c0.266-0.011,0.537-0.034,0.817-0.086c10.685-1.971,22.641-1.141,33.452,2.561c-9.941,0.908-20.018,0.459-29.989,0.674    c-0.805,0.018-0.807,1.268,0,1.25c10.858-0.233,21.832,0.297,32.629-0.95c3.434,1.352,6.725,3.003,9.795,4.96    c-4.547,0.004-9.095,0.052-13.642,0.119c-10.052-3.829-21.388-4.689-31.786-2.795c-0.015,0.003-0.027,0.009-0.042,0.012    c-20.688,2.918-38.147,16.982-42.083,38.061c-3.435,18.39-0.339,41.176,14.178,54.228c12.174,10.945,32.089,12.937,48.724,9.389    c5.888,0.03,11.776,0.188,17.662,0.131c-1.566,0.756-3.175,1.437-4.81,2.06c-11.629-0.392-23.353-0.749-34.791,1.56    c-0.79,0.159-0.455,1.364,0.332,1.205c10.267-2.072,20.78-1.958,31.237-1.624C160.353,280.533,149.45,281.54,139.171,280.86z     M169.294,157.713c7.145-13.616,13.991-27.063,17.99-42.023c3.82-14.289,11.07-27.825,16.745-41.518    c20.647,0.686,41.292,1.367,61.938,1.119c-1.719,1.572-3.419,3.16-5.099,4.77c-8.523,0.411-17.089-0.382-25.611-0.694    c-0.807-0.029-0.804,1.221,0,1.25c8.088,0.296,16.194,0.997,24.276,0.729c-0.821,0.795-1.655,1.578-2.468,2.382    c-8.593,0.47-17.231,0.045-25.809,0.972c-0.793,0.085-0.801,1.336,0,1.25c8.153-0.881,16.358-0.566,24.53-0.928    c-1.314,1.315-2.625,2.634-3.919,3.968c-8.146,1.031-16.419,0.981-24.611,0.71c-0.807-0.027-0.804,1.223,0,1.25    c7.731,0.256,15.529,0.319,23.227-0.526c-0.704,0.733-1.396,1.478-2.095,2.216c-8.106,1.177-16.301,0.852-24.465,1.394    c-0.8,0.053-0.805,1.304,0,1.25c7.704-0.512,15.434-0.262,23.092-1.192c-1.745,1.862-3.475,3.74-5.19,5.632    c-6.607,1.108-14.34-0.706-20.568-0.023c-0.792,0.087-0.801,1.338,0,1.25c5.872-0.644,12.941,0.831,19.282,0.185    c-0.881,0.979-1.756,1.962-2.631,2.947c-6.215,0.309-12.427,0.594-18.651,0.618c-0.806,0.003-0.807,1.253,0,1.25    c5.84-0.022,11.668-0.275,17.498-0.562c-1.288,1.46-2.575,2.922-3.853,4.395c-5.278,0.203-10.544,0.648-15.813-0.061    c-0.788-0.106-1.128,1.098-0.332,1.205c5.017,0.675,10.015,0.351,15.034,0.145c-0.963,1.116-1.929,2.229-2.886,3.351    c-5.217,0.088-10.432,0.263-15.648,0.282c-0.806,0.003-0.807,1.253,0,1.25c4.857-0.018,9.713-0.172,14.568-0.265    c-1.072,1.261-2.14,2.527-3.207,3.793c-5.192,0.088-10.378,0.074-15.529-0.76c-0.788-0.128-1.126,1.077-0.332,1.205    c4.914,0.796,9.851,0.872,14.798,0.813c-0.986,1.174-1.97,2.35-2.953,3.527c-5.154,0.716-10.401,1.17-15.513,0.456    c-0.788-0.11-1.128,1.094-0.332,1.205c4.857,0.68,9.79,0.358,14.676-0.262c-0.841,1.008-1.684,2.015-2.523,3.024    c-4.438,0.361-8.87,0.866-13.319,0.676c-0.807-0.034-0.803,1.216,0,1.25c4.077,0.174,8.141-0.238,12.206-0.586    c-0.742,0.895-1.485,1.789-2.229,2.683c-4.375,0.405-8.804-0.053-13.146-0.658c-0.788-0.11-1.128,1.094-0.332,1.205    c4.102,0.572,8.247,1.016,12.374,0.782c-1.104,1.33-2.209,2.658-3.313,3.987c-4.063-0.028-8.159-0.215-12.062-1.307    c-0.777-0.218-1.107,0.988-0.332,1.205c3.684,1.031,7.532,1.276,11.368,1.335c-0.802,0.964-1.604,1.926-2.407,2.889    c-4.139-0.058-8.302,0.079-12.296-1.096c-0.775-0.228-1.104,0.979-0.332,1.205c3.776,1.111,7.69,1.081,11.599,1.121    c-0.708,0.847-1.416,1.693-2.125,2.538c-3.88-0.091-7.76-0.205-11.641-0.219c-0.807-0.003-0.806,1.247,0,1.25    c3.539,0.014,7.076,0.109,10.614,0.196c-0.718,0.854-1.441,1.703-2.161,2.554c-3.818,0-7.636,0-11.453,0    c-0.806,0-0.806,1.25,0,1.25c3.464,0,6.928,0,10.393,0c-0.59,0.694-1.177,1.391-1.768,2.083c-3.875,0-7.75,0-11.625,0    c-0.806,0-0.806,1.25,0,1.25c3.521,0,7.041,0,10.562,0c-0.502,0.586-1.011,1.165-1.515,1.75c-3.904,0-7.809,0-11.714,0    c-0.806,0-0.806,1.25,0,1.25c3.544,0,7.089,0,10.633,0c-0.58,0.671-1.158,1.344-1.741,2.013    c-3.478,0.276-6.981,0.604-10.393,0.093c-0.788-0.118-1.127,1.086-0.332,1.205c3.159,0.475,6.373,0.265,9.579,0.022    c-1.047,1.195-2.108,2.377-3.164,3.563C181.364,161.283,175.418,159.137,169.294,157.713z"/><path d="M130,255c12.516-0.062,25.199-0.576,37.667-1.666c6.373-0.558,6.427-10.562,0-10    c-4.101,0.358-8.227,0.633-12.36,0.871c0.017-0.174,0.026-0.353,0.026-0.538c-0.012-16.445-0.32-32.888-0.333-49.333    c-0.005-6.448-10.005-6.449-10,0c0.001,1.188,0.012,2.376,0.016,3.564c-3.193,2.832-6.607,5.397-10.54,7.118    c-2.499,1.093-3.049,4.698-1.794,6.841c1.495,2.553,4.344,2.887,6.841,1.794c1.951-0.854,3.797-1.928,5.567-3.125    c0.096,11.047,0.235,22.093,0.243,33.141c0,0.354,0.036,0.685,0.093,1c-5.152,0.185-10.304,0.308-15.426,0.333    C123.553,245.031,123.55,255.031,130,255z"/></g></g><g id="Layer_2"/></svg>