<svg display="none" version="1.1" xmlns="http://www.w3.org/2000/svg" xmlns:xlink="http://www.w3.org/1999/xlink">
<defs>
<symbol id="twitter" viewBox="0 0 1024 1024">
  <title>twitter</title>
  <path d="M986.795 331.452c-2.594-2.475-5.41-5.069-8.593-6.656-23.637-11.81-44.629-28.459-69.683-37.828-12.902-4.838-13.056-7.305-6.204-20.54 2.953-5.666 6.204-11.179 9.267-16.785 9.165-16.811 18.944-33.331 27.221-50.586 6.289-13.099 10.752-27.085 15.838-40.747 3.371-9.045 2.304-17.852-1.835-26.539-2.253-4.71-5.513-6.639-10.633-6.528-14.763 0.341-28.561 3.43-42.206 9.847-23.919 11.247-48.751 20.514-72.875 31.317-10.274 4.582-16.811 1.587-23.842-6.144-12.271-13.483-24.764-26.94-38.417-38.997-20.087-17.724-43.179-30.379-69.837-35.755-39.339-7.936-77.884-8.602-114.551 11.093-9.643 5.188-19.78 9.438-29.355 14.746-16.879 9.335-31.957 21.103-45.022 35.371-25.771 28.1-41.83 61.713-54.955 96.981-1.237 3.396-2.091 6.997-2.645 10.581-3.738 24.337-7.1 48.725-6.946 73.421 0.034 3.635 0.213 7.509-0.981 10.82-0.683 1.903-4.096 4.096-6.118 3.951-4.463-0.316-8.789-2.236-13.252-3.157-45.449-9.438-86.665-27.776-122.624-57.515-21.094-17.442-42.445-34.577-63.659-51.883-43.503-35.499-81.681-75.588-108.203-125.696-4.847-9.156-12.314-12.629-22.485-12.262-9.131 0.341-16.179 4.437-20.352 11.887-8.021 14.31-14.234 29.628-22.579 43.708-16.657 28.049-26.743 57.796-26.906 90.624-10.351 56.235 22.067 119.057 63.573 145.024 2.304 1.451 4.608 2.97 6.69 4.693 2.773 2.321 1.621 4.949-0.572 6.571-2.884 2.159-6.229 3.755-9.429 5.41-12.971 6.673-26.231 12.885-38.963 20.011-13.517 7.595-16 18.918-7.535 32.051 9.387 14.592 18.628 29.295 28.74 43.349 12.8 17.792 26.027 35.226 45.517 46.763 13.466 7.953 27.187 14.763 42.684 17.749 2.133 0.401 4.011 3.328 5.376 5.461 0.324 0.555-1.536 2.987-2.842 3.994-7.936 6.118-16.111 11.964-24.038 18.133-15.317 11.887-17.579 21.76-7.902 37.615 10.069 16.469 22.417 31.147 37.487 43.307 22.084 17.783 47.087 27.477 75.776 26.419 5.495-0.205 10.974-0.171 16.444-0.085 4.497 0.085 6.229 3.311 4.164 7.023-7.313 13.252-18.261 22.852-31.42 29.696-23.467 12.22-46.848 24.747-71.014 35.447-26.675 11.819-54.562 13.909-82.645 3.9-6.016-2.133-11.981-4.42-18.048-6.366-9.020-2.884-16.683 0.546-21.803 7.424-8.67 11.691-11.631 24.107-3.413 38.161 11.264 19.234 25.549 35.925 42.769 49.468 20.77 16.316 42.863 31.036 64.853 45.739 17.715 11.861 37.734 17.792 58.863 20.48 25.301 3.243 50.773 5.845 75.716 10.906 24.38 4.966 48.811 6.298 82.466 6.784 24.363 2.219 56.201-4.497 87.697-15.104 18.057-6.076 36.992-9.643 55.441-14.66 14.916-4.053 30.396-6.144 44.442-13.269 22.801-11.58 45.414-23.381 65.587-39.424 32.853-26.138 66.278-51.593 98.876-78.029 17.033-13.824 32.23-29.585 43.605-48.768 7.458-12.544 15.974-24.431 24.32-36.42 18.807-27.051 35.362-55.467 49.067-85.35 16.384-35.669 29.312-72.704 40.755-110.199 2.116-6.929 4.523-14.131 4.582-21.231 0.085-17.732 5.948-34.014 10.24-50.773 1.741-6.758 5.342-11.349 11.093-14.763 18.816-11.221 37.163-23.322 56.516-33.51 13.653-7.194 21.615-19.285 31.104-30.157 4.523-5.205 2.782-15.258-2.364-20.173zM117.248 439.381c-1.69 7.014-3.439 13.995-5.205 20.992-0.649 2.577-4.011 2.987-6.229 0.529-3.61-4.053-7.023-8.277-10.462-12.484-0.529-0.683-0.717-1.655-1.067-2.492 1.161-1.263 2.091-3.004 3.524-3.686 4.915-2.364 9.933-4.497 15.053-6.366 1.195-0.427 2.97 0.427 4.335 0.998 0.316 0.137 0.23 1.69 0.034 2.5zM528.853 821.163l-2.432 3.021c-0.734-1.417-1.792-2.799-2.082-4.301-0.282-1.587 0.034-3.328 0.384-4.949 0.171-0.734 1.007-1.297 1.536-1.963 0.879 0.973 2.193 1.843 2.509 2.961 0.427 1.536 0.085 3.302 0.085 5.231zM903.808 351.181c-3.524 2.884-7.083 5.751-10.795 8.38-7.424 5.291-14.899 10.564-22.502 15.599-11.213 7.424-18.688 16.171-18.551 31.13 0.060 7.637-4.378 15.804-8.26 22.903-14.080 25.754-23.603 53.35-33.997 80.58-4.25 11.059-8.363 22.187-12.629 33.229-3.379 8.704-7.014 16.316-19.166 14.592-6.101-0.853-9.984 5.188-10.615 10.667-0.939 8.055-1.417 16.589 0.196 24.439 3.584 17.451-3.857 30.319-16.060 40.567-5.248 4.42-9.796 8.653-10.598 14.985-1.647 13.329-11.52 20.198-20.25 28.032-3.354 3.004-6.468 1.536-9.233-1.536-2.321-2.62-4.642-5.564-7.612-7.253-4.523-2.56-12.783 0.998-13.414 5.803-1.050 8.107-2.304 16.401-1.604 24.448 0.981 11.008-1.963 19.712-10.351 26.769-2.082 1.766-3.84 3.925-5.769 5.871-8.841 8.875-10.752 8.585-14.225-2.449-1.365-4.335-1.903-8.96-3.465-13.227-1.237-3.362-3.243-6.485-5.265-9.489-3.072-4.565-11.298-5.018-14.268-0.614-2.517 3.738-5.231 7.731-6.229 11.998-3.021 13.312-4.471 26.598-1.451 40.482 2.577 11.776-4.745 20.702-16.896 23.637-1.246 0.282-3.823-1.024-4.241-2.167-1.86-5.137-3.26-10.411-4.676-15.701-0.939-3.499-1.246-7.219-2.5-10.598-1.655-4.548-5.077-7.484-10.095-8.004-5.205-0.546-9.045 1.903-10.701 6.554-2.082 5.931-4.147 12.117-4.736 18.313-0.836 9.045-0.341 18.236-0.401 27.366-0.026 4.975-2.244 8.533-6.571 11.093-3.277 1.963-8.593 0.887-8.892-2.389-0.819-9.045-1.604-18.142-1.852-27.238-0.188-7.364-0.597-14.464-4.207-21.197-3.814-7.168-12.288-8.653-18.304-2.953-5.598 5.333-8.516 11.691-8.585 19.413-0.085 8.218-0.196 16.435-0.563 24.636-0.051 1.365-1.536 2.645-2.364 3.985-1.195-1.297-2.389-2.586-3.533-3.925-0.597-0.683-0.939-1.621-1.562-2.244-6.426-6.4-16.759-4.13-19.115 4.318-0.964 3.482-1.485 7.134-1.818 10.752-0.486 5.461-0.341 10.965-0.981 16.401-0.768 6.519-8.294 12.373-15.855 12.501-1.382 0.017-3.686-1.348-4.053-2.534-2.116-6.912-3.183-14.199-5.888-20.847-1.092-2.662-5.257-5.154-8.363-5.666-4.745-0.768-9.677 1.877-10.778 6.554-1.877 7.893-2.253 16.111-3.2 24.209-0.922 8.004-3.857 11.051-12.288 10.65-3.61-0.171-7.023-1.707-9.924 1.468-4.668 5.103-11.051 5.871-17.263 7.364-20.42 4.915-40.96 8.789-61.969 9.771-8.218 0.341-16.452 0.102-24.661 0.384-53.956 1.937-105.011-9.933-153.6-32.853-9.813-4.634-18.961-10.701-28.356-16.179-0.683-0.384-1.391-1.707-1.178-2.287 0.469-1.28 1.382-3.302 2.304-3.396 28.39-3.268 55.723-10.453 80.469-24.798 37.188-21.53 73.131-44.971 101.905-77.67 4.215-4.779 8.465-9.643 13.227-13.867 23.467-20.864 35.524-48.154 44.16-77.414 3.499-11.981 2.961-23.296-4.122-34.082-5.7-8.704-13.167-12.339-23.381-8.943-5.888 1.963-11.861 5.052-16.521 9.097-22.443 19.413-49.178 27.034-77.875 29.935-11.776 1.195-23.535 2.833-35.328 3.883-10.377 0.922-19.84-1.963-28.416-7.876-4.156-2.867-5.035-7.868-1.34-11.605 23.125-23.381 46.302-46.677 69.513-69.956 7.1-7.142 14.652-13.995 17.536-24.064 0.939-3.328 1.331-7.211 0.58-10.522-1.732-7.714-8.567-12.518-16.068-12.049-2.731 0.171-5.436 0.631-8.107 1.109-6.007 1.041-11.409 8.841-17.442 3.874-3.669-2.987-4.241-9.626-6.443-14.507-0.734-1.604-2.133-2.918-3.354-4.25-3.354-3.652-12.971-2.167-14.037 2.5-1.399 6.144-2.099 12.459-2.56 18.748-1.024 13.798-0.896 13.798-15.94 16.043-2.705 0.41-5.521 1.826-8.021 1.34-2.347-0.461-5.504-2.372-6.246-4.395-1.852-5.052-2.534-10.513-3.686-15.821-1.536-7.083-2.714-14.251-4.779-21.188-1.306-4.463-4.591-8.303-9.745-7.868-5.069 0.427-7.97 4.668-9.353 9.020-1.621 5.154-2.202 10.65-3.072 16.043-0.597 3.558-0.896 7.194-1.451 10.778-0.085 0.597-1.058 1.621-1.28 1.536-0.794-0.316-1.86-0.87-2.133-1.587-1.929-5.060-5.035-10.095-5.205-15.241-0.452-11.733-2.15-23.723 2.765-35.157 2.935-6.81 0.316-11.844-5.069-16.794-4.608-4.233-3.55-7.27 2.133-10.069 8.166-4.053 16.538-7.714 24.704-11.776 4.898-2.441 9.779-4.992 14.302-8.055 13.653-9.301 14.054-19.917 0.572-30.063-5.931-4.471-8.585-8.388-5.487-15.829 1.621-3.951 2.185-8.986 1.331-13.141-0.597-2.927-4.070-6.775-6.827-7.305-2.594-0.529-6.724 2.074-8.789 4.489-3.84 4.463-3.354 10.24-1.903 15.667 0.896 3.328-0.512 5.052-3.328 5.973-2.731 0.879-8.909-2.048-9.028-4.489-0.188-4.463-0.111-8.96 0.41-13.38 1.246-10.803 3.157-21.547 4.13-32.384 0.452-4.847-2.287-8.815-7.296-10.24-4.693-1.306-9.557-0.597-12.416 3.328-3.132 4.335-5.316 9.421-7.424 14.387-2.441 5.777-4.292 11.827-6.545 17.69-0.256 0.649-1.57 1.331-2.304 1.237-0.614-0.068-1.553-1.22-1.57-1.92-0.111-5.376-1.058-10.965 0.171-16.043 3.806-15.94 8.678-31.607 12.629-47.505 1.51-6.033 1.877-12.399 2.261-18.654 0.171-3.183-5.154-5.888-8.277-4.898-8.226 2.645-14.123 7.936-18.603 15.249-1.86 3.029-4.676 5.487-7.168 8.107-0.171 0.188-1.365-0.222-1.724-0.683-0.546-0.64-1.263-1.673-1.109-2.321 1.425-5.222 2.901-10.479 4.625-15.616 1.707-5.188 4.233-10.155 5.504-15.445 2.62-11.008-0.034-23.185-16.913-17.647-1.707 0.563-3.354 1.451-5.069 2.031-4.301 1.502-4.796-2.364-4.386-4.318 1.852-8.875 3.567-17.92 6.801-26.351 4.437-11.554 7.851-24.218 20.309-30.635 9.728 7.202 16.341 16.87 21.871 27.392 21.077 40.124 48.768 74.795 84.224 103.194 22.101 17.664 43.264 36.574 66.048 53.248 37.12 27.136 77.397 48.469 123.051 57.19 15.104 2.884 30.805 2.603 46.225 3.755 7.595 0.555 11.503 3.977 12.919 11.435 3.729 19.644 7.373 39.296 11.196 58.923 0.7 3.499 1.835 7.014 3.302 10.266 2.048 4.497 10.069 6.101 14.379 3.268 5.53-3.652 9.796-8.218 11.034-14.967 0.802-4.489 1.263-9.045 2.048-13.525 1.877-10.837 4.386-21.35 11.332-30.413 2.731-3.524 4.497-7.936 6.195-12.16 3.755-9.301-1.749-17.553-12.698-19.183-1.766-0.256-3.669 0.469-5.461 0.282-5.521-0.58-7.424-4.608-4.122-9.446 5.163-7.535 10.752-14.737 15.991-22.204 3.669-5.171 7.253-10.462 10.581-15.855 2.56-4.198 2.697-8.67-0.452-12.749-3.123-4.070-7.1-5.291-12.032-3.396-2.509 0.998-5.291 2.697-7.654 2.304-1.647-0.256-4.164-3.772-3.883-5.427 0.58-3.379 2.133-7.1 4.48-9.557 5.615-5.956 11.861-11.324 17.963-16.777 4.096-3.635 8.704-6.741 12.518-10.581 6.229-6.263 3.883-16.64-4.318-20.42-1.621-0.751-3.499-0.887-5.239-1.382-2.56-0.751-5.069-1.587-7.612-2.389 1.997-2.816 3.43-6.485 6.093-8.311 9.779-6.69 19.968-12.74 30.003-19.029 3.072-1.937 6.315-3.601 9.165-5.82 4.437-3.447 4.48-13.781 0.085-17.323-2.082-1.673-4.608-2.79-6.98-4.045-3.755-1.963-10.325-1.621-9.967-7.168 0.256-4.096 3.285-8.832 6.519-11.691 13.636-12.058 26.982-24.644 43.366-33.161 6.485-3.354 13.116-6.485 19.319-10.3 11.349-6.997 23.364-9.924 36.608-8.107 3.584 0.512 7.305 0.085 10.957 0.085 17.408-0.034 34.765-0.085 51.115 7.134 5.82 2.56 12.151 4.779 16.913 8.747 16.811 14.029 33.297 28.459 49.408 43.29 4.506 4.181 7.68 10.069 10.667 15.582 4.139 7.543 10.223 9.387 18.278 8.892 7.637-0.469 14.268-3.2 20.395-7.236 13.687-9.045 27.563-17.92 40.661-27.785 8.875-6.656 18.091-12.288 28.382-16.179 1.28-0.469 2.987 0.256 4.489 0.401-0.316 1.673-0.154 3.669-1.024 4.949-25.173 37.094-42.812 78.421-66.022 116.608-3.106 5.12-2.645 7.467 3.123 10.803 9.421 5.444 18.987 10.709 28.8 15.326 12.356 5.82 25.062 10.82 37.547 16.367 3.994 1.749 4.352 5.7 1.075 8.363zM660.079 238.131c-5.291 6.315-8.567 13.85-8.789 24.286 1.621 9.754 2.671 21.564 10.624 31.215 11.861 14.336 21.948 15.548 37.205 3.115 2.662-2.15 4.727-5.615 5.922-8.9 6.775-18.62 2.987-35.482-9.387-50.603-9.873-12.032-26.368-10.069-35.567 0.887z"></path>
</symbol>
<symbol id="stackoverflow" viewBox="0 0 1024 1024">
  <title>stackoverflow</title>
  <path d="M903.083 660.864c-1.562-6.656-5.163-10.871-12.288-13.022-32.768-9.882-66.321-11.127-100.096-10.138-3.499 0.102-7.962 0.742-10.257 2.935-9.728 9.284-21.47 17.237-24.235 31.898-1.647 8.96-4.335 17.818-5.018 26.829-2.236 29.978-7.1 59.776-6.059 89.984 0.188 5.461 0 10.957-0.307 16.418-0.341 6.229-4.096 10.496-10.103 10.837-8.192 0.512-16.401 0.384-24.619 0.538-33.749 0.683-67.755-0.939-101.205 2.782-29.124 3.243-58.112 3.985-87.245 4.267-30.123 0.282-60.228 0.239-90.368 0.469-8.192 0.068-16.555-0.341-24.593 0.981-39.893 6.571-80.128 2.091-120.175 4.309-5.316 0.29-8.277-3.021-9.25-8.064-1.041-5.35-2.526-10.684-2.901-16.094-2.543-35.465-4.796-70.938-7.194-106.411-1.348-19.994-2.56-39.996-4.437-59.938-0.393-4.181-2.338-9.216-5.325-11.947-8.516-7.817-19.499-10.607-30.413-7.45-34.091 9.899-68.096 20.053-98.842 38.869-9.148 5.589-12.971 11.332-11.981 21.786 1.604 17.22 2.97 34.509 3.328 51.78 0.811 41.984 1.724 83.968 1.143 125.952-0.384 27.511 3.115 54.571 5.683 81.749 0.401 4.156 3.157 8.192 5.291 12.032 1.724 3.072 5.009 5.461 6.127 8.661 4.676 13.756 15.155 16.896 28.075 16.725 17.323-0.222 34.679 0.41 52.002-0.196 59.221-2.074 118.468-4.54 177.715-6.861 1.818-0.068 3.686 0.085 5.461-0.23 28.945-4.992 58.223-3.686 87.381-3.942 31.027-0.256 62.037 0.085 93.073-0.171 12.766-0.111 25.532-0.896 38.281-1.724 12.698-0.828 25.344-2.611 38.059-2.987 17.306-0.538 34.671-0.145 52.011-0.145 56.354-1.92 113.152 0.563 168.107-16.179 3.413-1.050 7.253-0.657 10.837-1.229 7.552-1.152 9.643-3.072 10.052-10.325 1.468-25.489 3.285-50.961 3.925-76.459 0.99-39.236 1.024-78.481 1.673-117.734 0.137-8.166 0.452-16.486 2.099-24.439 3.814-18.475 0.683-36.309-3.413-54.144zM866.133 717.321c-1.707 47.428-3.925 94.822-5.973 142.225-0.401 9.114-0.802 18.244-1.399 27.349-0.341 5.077-3.132 8.619-8.192 9.532-17.024 3.046-34.005 6.997-51.2 8.499-30.874 2.679-61.867 4.847-92.843 5.444-70.315 1.34-140.629 1.604-210.944 2.304v-0.623c-68.506 0-137.011 0.026-205.525 0-7.279-0.017-14.626 0-21.871-0.683-2.219-0.205-5.598-2.389-6.084-4.267-3.985-15.386-13.935-19.857-28.843-17.963-6.972 0.887-8.090-0.29-6.912-7.595 1.024-6.374-1.024-10.667-4.864-14.737-4.096-4.352-9.728-5.615-15.13-4.292-6.972 1.707-13.653 4.71-20.454 7.211-3.072 1.143-6.912-2.432-5.837-6.042 0.973-3.311 2.304-7.083 4.745-9.267 4.011-3.584 9.37-5.632 13.568-9.062 13.329-10.923 11.315-21.060-5.137-27.477-5.205-2.014-6.204-3.84-3.55-6.929 2.389-2.731 5.316-5.035 7.484-7.91 10.837-14.396 5.018-28.672-13.030-32.034-1.707-0.316-3.652 0.853-5.402 0.649-4.011-0.478-7.031-7.458-4.523-10.607 2.244-2.816 4.625-5.683 7.492-7.765 5.163-3.729 11.264-6.272 16.043-10.411 5.376-4.693 10.667-10.052 14.293-16.128 5.12-8.533 0.785-18.381-7.697-23.125-9.779-5.487-19.234-3.072-29.065-0.751-1.707 0.401-5.248-1.963-5.948-3.78-0.819-2.15 0.119-5.291 1.109-7.68 0.572-1.451 2.526-2.679 4.156-3.302 5.086-1.988 10.18-4.207 15.497-5.342 33.109-7.083 33.365-17.852 32.981 25.489-0.29 31.949 0.939 63.915 2.304 95.855 0.794 18.176 3.14 36.309 4.949 54.443 0.973 9.387 4.437 12.476 13.773 13.338 26.3 2.475 52.565 6.656 78.916 7.066 51.098 0.811 102.4 1.741 153.344-1.621 48.384-3.2 96.597-4.036 144.981-3.883 33.775 0.102 67.558-0.794 101.359-0.973 14.592-0.068 29.201 0.614 43.819 0.802 5.461 0.068 10.948-0.043 16.384-0.546 5.999-0.563 9.984-4.608 10.863-10.47 1.195-8.090 2.389-16.179 3.396-24.303 1.246-9.83 5.666-16.026 15.684-19.9 13.227-5.12 16.58-12.288 14.549-25.574-0.64-4.181-2.628-9.557-5.803-11.665-7.996-5.342-12.407-13.184-17.391-20.676-7.663-11.494-7.134-20.25 1.331-32 10.786-14.933 11.298-16.384-0.939-30.242-5.803-6.537-5.717-12.851-4.489-20.139 0.683-4.045 3.2-6.784 7.219-6.912 16.418-0.461 32.853-0.734 49.263-0.802 4.727-0.026 8.277 3.627 8.533 8.977 0.649 12.757 1.502 25.557 1.024 38.315zM372.702 391.714c21.214 11.179 43.776 17.971 67.465 20.608 23.825 2.645 46.251 9.267 67.959 19.243 11.52 5.291 23.637 9.446 35.797 13.193 37.342 11.52 74.889 22.485 112.256 34.005 6.016 1.852 11.435 5.547 17.186 8.277 8.243 3.874 16.358 8.081 24.858 11.281 10.923 4.096 21.47 2.321 31.437-3.755 8.021-4.89 9.045-12.834 10.786-21.009 4.949-23.1 10.539-46.063 15.855-69.094 2.389-10.377 14.78-15.855 22.921-9.899 8.081 5.956 15.753 12.442 23.893 18.287 6.81 4.898 11.435 10.035 13.705 19.089 3.243 12.971 18.005 16.503 28.484 8.602 6.63-4.992 12.066-10.923 15.829-18.517 10.53-21.231 21.402-42.3 32.102-63.454 1.237-2.449 2.603-4.915 3.243-7.526 2.577-10.266 3.226-20.173-8.021-26.138-4.693-2.492-6.349-6.332-5.82-11.196 1.297-11.264-4.651-18.705-12.22-26.010-28.894-27.87-57.139-56.431-86.238-84.079-20.48-19.456-41.498-38.443-63.147-56.593-31.488-26.385-63.036-52.446-87.296-86.221-11.674-16.282-22.127-17.963-40.363-9.301-4.062 1.911-7.996 4.454-11.221 7.509-17.152 16.384-34.193 32.939-51.029 49.638-3.84 3.806-7.919 8.021-9.916 12.86-4.48 10.923-8.149 22.221-11.383 33.587-2.5 8.653 0.137 16.171 7.62 21.7 6.613 4.864 13.312 9.643 19.627 14.848 51.985 43.017 103.919 86.076 155.836 129.186 2.048 1.707 3.652 3.985 5.316 6.11 0.316 0.375 0.085 1.536-0.299 1.988-0.546 0.649-1.519 1.425-2.253 1.365-11.998-0.887-22.955-5.461-33.502-10.752-16.469-8.277-33.877-12.971-51.9-16.299-16.964-3.132-33.937-6.537-50.773-10.428-38.938-8.986-77.807-18.347-116.71-27.52-2.645-0.631-5.393-0.87-6.042-0.973-13.551 2.432-25.114 4.548-36.693 6.545-7.441 1.28-8.277 2.927-7.142 13.252 0.256 2.441 0.529 5.931-0.853 7.356-17.297 17.98-20.685 42.257-29.133 64.171-2.193 5.675-1.792 12.544-1.69 18.859 0.145 7.885 4.241 13.397 11.46 17.195zM684.698 227.49c-0.23 0.879-0.427 1.775-0.58 2.662-3.61 20.019-3.61 20.036-19.072 8.841-4.437-3.2-8.917-6.34-13.099-9.83-3.669-3.072-5.564-6.827-4.036-12.015 2.56-8.704 5.069-17.493 6.716-26.419 1.152-6.161 1.877-12.783 0.768-18.833-0.683-3.789-4.463-8.021-8.004-10.027-4.011-2.304-8.764-0.307-12.501 2.85-7.253 6.101-10.854 14.481-14.626 22.784-1.451 3.243-2.884 6.511-4.523 9.668-0.256 0.495-1.741 0.828-2.338 0.563-1.553-0.657-4.011-1.536-4.198-2.62-0.512-3.413-0.896-7.185 0-10.436 2.987-10.496 5.837-21.111 10.086-31.104 5.060-11.981 2.859-23.552 0.563-35.277-0.401-0.358-0.794-0.734-1.195-1.109-0.205-0.299-0.401-0.623-0.597-0.939-3.072-0.043-6.212 0.145-9.028-0.7-1.92-0.572-3.243-3.302-4.608-5.205-0.171-0.239 0.811-1.937 1.306-1.963 2.27-0.102 5.333-0.734 6.741 0.452 2.287 1.963 3.84 4.804 5.572 7.424 0.469 0.017 0.939 0 1.399 0.034 0.137 0.683 0.256 1.365 0.401 2.031 14.191 13.346 28.245 26.837 42.615 39.987 47.078 43.051 94.174 86.084 138.411 132.096 14.532 15.104 29.764 29.508 47.684 40.73 5.82 3.635 6.263 5.888 3.601 10.974-2.534 4.838-5.513 9.455-7.936 14.336-12.049 24.32-10.718 20.207-30.208 5.333-14.438-11.034-27.844-23.467-41.745-35.243-19.456-16.495-38.656-33.28-58.539-49.271-6.793-5.461-8.243-11.375-6.605-19.081 1.109-5.333 2.586-10.65 3.132-16.043 0.811-7.68-1.963-14.285-7.808-19.439-5.76-5.086-15.983-2.304-17.732 4.83zM438.468 328.525c2.219-5.751 7.552-7.808 13.397-7.407 44.049 3.021 86.485 12.203 125.833 33.195 13.696 7.279 27.699 13.713 43.281 16.444 7.339 1.28 14.182 2.62 21.419-0.102 8.934-3.371 17.519-2.022 26.667 0.768 12.996 3.977 26.539 6.059 39.902 8.909 5.222 1.109 8.977 4.907 7.74 9.361-5.333 19.243-11.034 38.4-16.836 57.489-0.23 0.785-3.328 1.664-4.318 1.109-31.403-17.664-67.465-21.82-100.523-34.688-6.46-2.517-11.349-5.248-13.705-11.861-1.237-3.396-2.202-7.509-4.693-9.685-4.71-4.079-10.069-7.962-15.812-10.103-5.675-2.091-10.069 2.705-14.336 6.178-1.169 0.956-2.645 1.536-4.062 2.219l-0.068 0.87-0.597 0.085c-0.171 2.389-0.111 4.898-0.913 7.040-0.444 1.126-3.038 2.099-4.506 1.92-1.399-0.171-3.43-1.809-3.618-3.029-0.196-1.425 0.939-3.883 2.167-4.471 2.048-0.99 4.523-1.092 6.861-1.451 0.017-0.213 0.017-0.444 0.043-0.657 0.213-0.119 0.427-0.205 0.64-0.307 0.299-4.267 0.828-8.533 0.7-12.766-0.341-11.145-7.509-17.434-18.15-13.739-14.182 4.932-30.583 5.461-41.079 19.115-3.046 3.959-8.704 1.98-12.587-0.486-1.894-1.195-3.772-4.25-3.644-6.349 0.196-3.499 2.645-6.827 3.072-10.342 1.306-10.726-8.448-19.183-19.115-16.555-4.378 1.084-8.448 3.413-12.74 4.966-4.164 1.519-7.552-0.887-6.571-4.779 1.809-7.049 3.584-14.14 6.161-20.881zM312.559 598.955c25.429 1.604 50.816 3.413 76.22 5.205 5.461 0.401 11.136 0.341 16.23 1.98 15.070 4.864 30.618 4.079 46.037 5.018 31.787 1.963 63.701 2.816 95.386 5.871 32.452 3.132 65.246 4.011 97.050 13.167 14.985 4.318 31.113-6.69 34.97-22.912 4.181-17.647 7.535-35.567 10.24-53.504 2.219-14.788-4.454-26.829-18.995-32.683-14.251-5.743-29.184-10.035-44.117-13.79-14.046-3.55-28.484-5.547-42.769-8.243-6.246-1.178-12.433-3.115-18.714-3.413-23.808-1.109-46.618-6.946-69.564-12.817-29.867-7.646-60.117-13.781-90.214-20.565-0.879-0.171-1.809-0.119-2.731-0.256-14.336-2.406-29.056-3.524-42.923-7.595-14.507-4.25-27.034-0.102-39.552 5.257-8.602 3.669-14.95 10.462-17.732 19.729-2.116 6.929-3.968 13.978-5.419 21.077-1.818 8.875-3.132 17.869-4.634 26.812-2.406 14.302-4.796 28.604-6.622 39.629 0.119 23.526 7.27 30.737 27.853 32.026zM395.332 517.461c0.188-3.388 5.060-6.451 8.209-5.274 30.831 11.605 64.282 12.322 95.386 23.313 13.534 4.804 28.399 6.946 42.82 7.996 20.224 1.451 39.885 5.001 58.624 12.203 10.556 4.070 21.248 4.548 32.085 5.828 4.992 0.597 8.124 3.669 8.755 8.858 1.109 9.028-4.25 14.874-12.57 12.595-13.278-3.635-26.573-5.931-40.329-6.682-20.019-1.109-39.97-3.277-59.964-4.753-13.713-1.007-27.221-1.519-36.42-14.507-3.012-4.215-9.66-2.773-14.507 1.707-2.586 2.372-4.48 5.803-7.424 7.424-6.775 3.806-14.959-0.401-16.188-7.868-0.427-2.679 0.034-5.547-0.58-8.175-1.604-6.955-6.656-11.631-13.116-11.972-4.548-0.222-9.148 0.683-13.653 0.307-9.429-0.811-16.128 1.946-18.398 11.981-0.384 1.758-0.853 3.977-2.082 4.975-3.217 2.56-6.869 4.523-8.875 5.803-4.096-0.58-6.357-0.256-7.595-1.237-1.852-1.476-4.634-4.437-4.164-5.76 4.309-12.015 9.19-23.791 9.958-36.779zM339.866 512.145c2.091-7.561 7.040-10.556 14.037-8.875 4.403 1.058 8.73 2.364 13.082 3.669 0.836 0.239 1.536 0.939 2.304 1.425-0.469 0.734-0.785 1.647-1.434 2.176-4.83 4.096-9.83 7.996-14.618 12.143-5.18 4.48-8.789 4.898-11.58 2.108-3.951-3.925-2.987-8.363-1.792-12.646zM694.579 725.419c-1.937-18.091-3.533-36.233-6.17-54.221-1.852-12.8-9.233-21.53-22.554-24.286-3.567-0.734-7.049-2.475-10.564-2.475-21.862-0.034-43.75-0.205-65.587 0.64-19.081 0.742-38.101 3.055-57.173 4.139-18.927 1.075-37.717 5.717-56.96 1.126-5.828-1.382-12.544 1.263-18.876 1.655-28.16 1.707-55.748 8.277-84.139 8.602-15.326 0.171-30.72 3.43-45.875 6.374-10.581 2.048-17.732 8.875-19.627 20.139-1.365 8.064-3.627 16.085-4.011 24.183-0.802 16.358-1.024 32.768-0.597 49.135 0.23 8.277 2.97 17.203 10.411 21.393 18.057 10.18 36.079 20.122 58.197 20.309 34.756 0.256 68.89-6.11 103.424-7.979 15.42-0.819 30.805-2.56 46.131-4.736 34.253-4.83 68.523-8.687 103.151-9.813 17.237-0.555 34.475-2.773 51.601-4.89 12.629-1.562 19.43-9.591 19.763-21.99 0.171-6.374 0.026-12.757 0.026-19.132h-0.538c0-2.731 0.256-5.495-0.034-8.192zM551.842 741.291c-32.478 4.079-64.973 7.962-97.451 12.203-16.213 2.099-32.375 4.779-48.555 7.279-3.584 0.555-7.1 1.843-10.701 2.133-30.208 2.364-28.433 3.157-28.757-26.283 0-5.461-0.256-10.923 0.085-16.384 0.222-3.942 2.705-6.485 6.758-7.168 6.281-1.092 12.544-2.321 18.833-3.226 23.381-3.354 46.763-6.886 70.229-9.762 11.708-1.425 23.595-1.536 35.388-2.304 18.133-1.212 36.301-2.432 54.443-3.703 4.181-0.29 6.827 3.191 4.241 7.066-7.492 11.196-7.458 21.786 0.111 32.913 2.355 3.499-0.026 6.656-4.642 7.253zM635.947 735.744c-7.253 0.486-14.532 0.085-21.82 0.085v0.683c-5.444 0-10.906 0.137-16.358-0.026-4.335-0.137-7.484-3.354-5.734-6.716 5.743-11.153 1.963-21.103-2.526-31.258-1.604-3.652 0.751-6.178 5.205-6.485 5.717-0.367 9.728 1.621 14.251 5.7 11.972 10.786 20.292 9.165 31.343-4.207 1.135-1.365 2.347-2.645 3.55-3.951 0.964 1.468 2.56 2.833 2.85 4.437 1.502 8.004 3.243 16.043 3.84 24.149 1.024 12.911-2.304 16.777-14.592 17.596z"></path>
</symbol>
<symbol id="linkedin" viewBox="0 0 1024 1024">
  <title>linkedin</title>
  <path d="M919.569 743.040c-0.469-18.176-2.116-36.352-3.243-54.528-0.171-2.731-0.794-5.589-0.239-8.192 4.096-19.081 1.169-38.101 0.119-57.199-0.563-9.941 0.802-19.994 1.297-30.003 0.213-4.548 0.819-9.105 0.614-13.636-0.819-18.21-1.92-36.403-2.833-54.596-1.22-24.695-5.769-48.836-12.629-72.491-4.301-14.874-10.325-29.269-14.199-44.245-7.45-28.757-25.796-49.92-46.677-69.316-10.129-9.404-22.016-17.135-36.096-18.219-29.15-2.236-58.402-2.389-87.313 2.748-28.646 5.12-55.518 17.664-84.736 20.804-4.403 0.469-8.533 3.157-12.834 4.693-17.237 6.195-33.263 14.788-48.981 24.124-1.152 0.683-5.666-1.451-6.084-2.961-1.195-4.284-1.621-8.986-1.365-13.449 0.683-11.733-4.497-20.77-11.136-29.969-10.368-14.421-22.596-19.541-40.149-14.379-20.070 5.905-40.73 9.711-60.928 15.215-12.288 3.362-24.346 7.706-36.13 12.544-11.042 4.523-17.041 13.022-16.896 25.6 0.111 11.861 0.708 23.893-1.041 35.533-3.925 26.351-3.413 52.804-3.584 79.223-0.393 56.619-0.128 113.237-0.128 169.83h-0.051c0 74.863-0.256 149.734 0.119 224.597 0.145 28.186 18.125 43.034 44.544 36.096 13.585-3.584 26.948-4.181 40.576-4.42 13.679-0.239 27.392-0.222 41.079-0.060 8.414 0.102 16.316-1.604 23.697-5.572 9.643-5.188 19.371-9.677 30.276-12.203 9.318-2.133 15.77-9.301 16.896-19.456 2.074-19.098 7.211-37.436 12.8-55.723 1.579-5.060 2.611-11.059 1.425-16.043-6.4-26.854-5.419-54.443-7.398-81.579-3.371-46.37-5.137-92.826-11.802-138.897-1.152-7.97 0.614-13.653 8.004-18.364 9.882-6.332 16.128-18.005 28.015-21.419 16.87-4.779 32.102-12.177 46.677-21.99 12.288-8.26 27.904-3.55 35.61 9.472 5.060 8.576 9.156 17.894 12.51 27.29 7.731 21.649 10.667 44.177 10.718 67.132 0.154 63.915 0.452 127.829 0.631 191.744 0.102 35.516 0.102 35.456 25.259 59.051 5.547 5.188 11.691 8.422 19.285 9.353 28.109 3.413 56.32 5.53 84.608 4.181 8.055-0.384 16.256-2.372 23.859-5.12 8.465-3.038 16.486-7.509 24.405-11.844 8.593-4.693 13.611-12.032 13.943-22.050 0.256-7.287 0.316-14.609 0.256-21.905-0.171-26.453-0.051-52.932-0.751-79.403zM864.017 728.192c-0.751 25.515-1.937 51.029-2.97 76.544-0.282 6.656-3.413 9.728-10.155 9.745-15.531 0.034-31.061 0-46.592-0.171-6.827-0.085-9.933-3.038-10.667-9.668-2.116-19.2-0.034-38.298 1.766-57.395 1.212-12.672 3.123-25.327 3.558-38.025 1.263-37.41-2.27-74.871 1.468-112.265 0.444-4.471 0.085-9.216-0.896-13.602-0.751-3.345-2.347-8.064-4.881-9.156-9.668-4.207-12.169-13.141-15.932-21.299-9.933-21.589-20.463-42.795-34.202-62.293-8.764-12.459-20.267-21.214-34.603-25.532-14.268-4.301-29.5-4.224-43.383-0.119-31.343 9.284-63.607 17.015-89.975 38.272-3.55 2.85-7.202 6.571-11.349 7.492-14.635 3.311-20.514 14.353-24.764 26.675-1.707 4.932-2.048 10.581-1.852 15.872 0.367 9.958 2.15 19.883 2.304 29.85 0.657 39.27 1.34 78.541 1.178 117.811-0.137 32 2.816 63.744 5.734 95.539 0.819 8.917-0.666 10.325-10.325 12.39-8.892 1.903-17.954 3.183-26.735 5.564-9.37 2.56-16.486 3.157-22.391-7.381-4.207-7.509-12.527-4.83-19.601-1.297-3.994 1.988-7.765-0.068-7.851-3.465-0.358-16.435-0.717-32.87-0.683-49.289 0-3.499 0.828-7.424 2.526-10.445 8.26-14.558 10.692-30.874 15.223-46.618 3.115-10.812 0.256-18.406-9.216-22.562-7.134-3.14-8.815-7.561-9.353-14.592-1.826-24.235 2.645-47.044 12.851-69.069 4.582-9.882 8.004-20.369 11.213-30.805 4.053-13.158 0.307-19.115-13.995-24.047-9.66-3.328-11.827-6.204-9.259-15.309 5.717-20.164 11.947-40.192 18.005-60.228 1.877-6.11 4.207-12.075 5.803-18.244 1.826-6.997-3.089-14.763-10.377-16.7-2.603-0.683-5.461-0.256-8.132-0.785-6.912-1.34-9.643-4.096-9.933-10.692-0.367-8.192-0.282-16.427-0.171-24.636 0.043-4.147 2.577-6.852 6.46-7.62 11.605-2.287 23.228-4.565 34.918-6.315 6.741-0.998 11.093 1.92 11.349 8.474 0.768 20.19 11.819 36.181 20.89 52.881 5.948 10.923 16.247 13.449 28.314 7.953 8.277-3.772 16.35-8.141 24.201-12.749 22.118-12.971 44.902-24.021 70.084-30.071 19.456-4.676 38.417-11.315 57.719-16.691 28.211-7.851 55.825-7.108 82.517 6.281 8.175 4.096 16.606 7.484 26.138 7.117 8.414-0.341 13.414 5.069 16.87 11.861 2.048 4.028 3.157 8.516 4.668 12.8 10.752 31.061 19.831 62.549 24.431 95.147 1.263 8.994 1.451 18.21 1.502 27.307 0.171 30.148 0.068 60.279 0.068 90.419l0.58 0.017c-0.683 31.061-1.22 62.097-2.133 93.133zM301.739 364.996c-1.707-0.512-3.268-1.647-4.719-2.731-4.779-3.541-10.138-3.755-15.667-2.799-29.577 5.163-59.136 10.385-88.704 15.556-13.431 2.338-26.436 6.844-40.363 6.741-5.291-0.034-10.752 1.877-15.872 3.703-9.301 3.328-15.334 10.069-16.384 20.053-1.963 19.012-4.326 38.042-4.924 57.122-2.475 78.421 0.145 156.945-5.461 235.298-2.321 32.742-1.254 65.604-4.215 98.389-3.277 36.403-0.939 72.96 3.499 109.261 2.236 18.415 15.531 28.16 32.973 22.272 11.759-3.968 23.211-3.558 34.918-4.489 10.871-0.87 21.7-2.389 32.546-3.644 7.253-0.836 14.464-1.877 21.734-2.441 21.811-1.638 43.605-3.345 65.451-4.523 10.837-0.58 18.978-5.308 25.882-13.312 5.871-6.827 6.605-14.874 6.519-23.142-0.239-24.661-1.058-49.289-0.956-73.95 0.23-63.846-1.818-127.701 3.968-191.514 2.953-32.657 1.963-65.681 2.97-107.383-0.614-24.038-1.707-56.892-2.244-89.754-0.375-22.784-6.451-41.429-30.933-48.725zM168.303 867.149c-1.246-0.213-2.884-2.202-3.021-3.499-0.145-1.314 1.195-3.797 2.219-4.011 4.207-0.828 8.533-1.143 12.817-1.195 0.64-0.017 1.306 2.33 1.911 3.473-3.354 5.683-8.516 6.195-13.935 5.231zM276.651 503.723c-0.563 10.897-2.116 21.743-3.132 32.614-3.157 33.519-6.349 67.029-9.353 100.565-0.742 8.166-1.152 16.384-1.22 24.593-0.401 57.446-0.683 114.918-0.981 172.373-0.026 4.565 0.222 9.131 0.085 13.696-0.128 5.163-3.302 8.849-7.876 9.438-1.792 0.256-3.618 0.546-5.427 0.512-7.185-0.205-15.445 1.604-21.299-1.323-7.74-3.866-2.62-13.184-3.217-20.053-0.836-9.421-4.779-14.763-14.404-17.033-7.979-1.877-8.226-3.499-6.656-11.435 0.512-2.671 1.792-5.188 2.236-7.876 1.809-11.179-0.137-14.123-12.715-20.181-6.315-3.046-7.595-5.035-5.837-9.882 5.316-14.532 10.803-28.996 16.085-43.554 1.536-4.233 3.157-8.653-0.768-12.715-4.591-4.779-9.617-3.908-14.95-1.519-2.022 0.905-4.207 1.485-6.357 2.116-0.119 0.341-0.256 0.7-0.367 1.050-0.341 0.188-0.555 0.452-0.87 0.657-0.068 3.925 0.358 8.081-4.608 9.685 0 0.29-0.060 0.555-0.043 0.853-0.256 0.205-0.529 0.401-0.794 0.597-0.205 2.065-0.358 4.139-0.717 6.178-0.128 0.657-1.050 1.169-1.604 1.741-0.7-1.434-2.338-3.499-1.903-4.164 1.024-1.519 2.671-2.603 4.224-3.755 0.034-0.401 0.085-0.794 0.137-1.195 0.273-0.068 0.452-0.171 0.7-0.256 0-3.985 1.178-7.39 4.608-9.685 0.017-0.452 0.026-0.905 0.060-1.348 0.393-0.128 0.785-0.23 1.195-0.341 3.115-9.062 6.374-18.057 9.216-27.179 1.963-6.195-2.406-12.314-9.643-13.653-2.62-0.461-7.185 1.34-7.817 0.282-1.707-2.833-2.321-6.656-2.372-10.086-0.171-11.23 3.499-21.163 9.421-30.831 16.35-26.752 24.047-56.883 32.102-86.784 1.263-4.719-0.316-9.813-5.461-10.965-9.813-2.159-10.496-8.303-8.977-16.333 2.048-10.701 4.267-21.402 5.53-32.196 0.614-5.291-0.299-10.923-1.382-16.23-1.587-7.851-6.784-11.895-15.633-12.681-3.584-0.316-7.27 0.469-10.863 0.171-0.99-0.085-2.014-2.099-2.62-3.413-0.196-0.461 0.683-1.963 1.331-2.176 5.171-1.707 10.411-3.209 15.616-4.762 5.18-1.536 11.093-1.98 15.445-4.796 20.011-12.954 43.349-12.629 65.425-17.28 4.89-1.024 9.37 2.799 9.216 7.552-0.751 23.663-1.553 47.36-2.765 70.997zM142.677 266.539c12.339 6.17 22.741 14.566 34.133 21.786 12.629 7.996 26.453 11.947 41.66 10.667 19.738 1.818 38.101-3.157 53.845-15.070 36.608-27.648 56.439-63.317 51.115-110.677-1.391-12.16-5.257-22.844-12.826-32.427-17.596-22.229-40.26-37.069-67.61-43.349-19.652-4.497-40.081-4.915-58.624 5.086-32.708 17.647-54.716 44.117-64.828 80.418-4.796 17.22-4.966 33.903 0.341 50.884 4.181 13.414 10.581 26.573 22.784 32.683zM214.417 181.922c0.956-4.412 2.185-8.738 3.004-13.167 0.879-4.779-7.424-10.641 0.341-14.046 4.386-1.929 10.496-0.427 15.735 0.188 10.325 1.195 18.884 6.229 26.385 13.193 5.683 5.265 8.576 11.691 7.714 19.729-2.944 14.319-7.817 27.853-19.217 37.939-1.707 1.51-5.248 2.176-7.441 1.536-2.091-0.597-4.437-3.174-5.060-5.342-0.99-3.413-0.631-7.219-0.87-10.837-0.597-9.199-4.881-14.729-14.217-17.468-8.192-2.423-8.132-3.669-6.374-11.725z"></path>
</symbol>
<symbol id="google+" viewBox="0 0 1024 1024">
  <title>google+</title>
  <path d="M556.459 581.692c-13.227-11.153-24.917-24.081-37.478-36.036-6.571-6.229-12.732-13.602-20.531-17.698-10.24-5.402-11.051-13.286-10.752-22.784 0.256-8.747 5.018-15.479 9.583-22.246 27.793-41.045 47.445-86.221 66.901-131.465 2.133-4.966 4.181-10.325 4.625-15.616 1.664-20.002 3.132-40.004-4.898-59.366-2.765-6.613-3.721-14.037-5.419-21.103-2.099-8.73 0.631-15.701 6.682-22.383 9.788-10.837 19.072-22.135 27.989-33.664 15.053-19.473 30.396-38.775 44.203-59.136 10.65-15.701 4.949-32.512-12.416-40.004-6.519-2.816-14.020-4.497-21.077-4.608-30.14-0.41-60.262-0.043-90.368 0.060-2.731 0-5.547-0.060-8.192 0.512-30.66 6.502-61.952 1.92-81.749 4.215-33.826 0-56.678-0.981-79.394 0.213-36.096 1.911-69.956 11.657-99.627 33.451-22.084 16.273-43.23 33.579-62.037 53.623-11.349 12.117-20.565 25.651-27.11 40.832-6.502 15.019-12.331 30.345-18.261 45.628-2.944 7.637-5.922 15.317-8.090 23.211-5.137 18.79-5.461 38.315-1.451 56.943 4.582 21.333 13.030 41.685 25.199 60.245 16.87 25.728 39.697 44.885 65.024 61.696 13.926 9.276 28.894 15.121 45.073 18.807 13.431 3.072 26.982 4.096 40.653 4.668 3.738 0.171 6.878 2.321 6.741 6.912-0.171 5.376-0.768 10.769-0.597 16.128 0.384 11.127-0.512 13.21-10.3 15.505-46.063 10.786-87.168 31.863-124.314 60.732-12.954 10.069-24.602 21.76-37.436 31.983-17.408 13.867-30.165 31.718-43.247 49.169-5.333 7.117-9.216 16.043-11.213 24.713-4.267 18.603-7.467 37.436-7.083 56.815 0.256 13.158 3.456 25.020 9.173 36.71 11.989 24.448 31.172 42.581 51.678 59.452 14.063 11.58 28.629 22.571 43.435 33.195 20.847 14.976 42.923 27.733 68.48 33.007 8.892 1.835 17.92 3.968 26.906 4.13 21.862 0.427 43.861 0.99 65.621-0.768 21.641-1.775 43.042-6.673 64.623-9.557 34.714-4.651 65.28-22.229 98.662-31.002 2.56-0.683 5.086-2.253 7.151-3.985 10.377-8.849 21.077-17.365 30.746-26.948 12.271-12.203 23.296-25.668 35.558-37.888 10.581-10.556 18.586-22.613 23.364-36.574 10.155-29.653 14.703-60.015 11.75-91.503-4.139-43.989-23.040-79.735-56.772-108.254zM200.832 305.92c-0.964-9.105 2.97-15.701 10.325-20.821 6.724-4.659 13.355-9.489 19.661-14.711 3.447-2.85 6.767-6.281 8.96-10.121 2.773-4.898 2.987-10.496-0.29-15.565-3.268-5.069-8.064-7.031-14.020-6.332-0.896 0.102-1.792 0.256-2.697 0.427-4.796 0.922-10.368 7.023-14.131 0.188-1.673-3.098 0.358-8.687 1.562-12.885 3.43-11.981 10.923-18.603 24.132-17.186 3.61 0.384 7.296 0.068 16.009 0.068 18.714 0.256 22.272-1.621 15.462 26.086-4.813 19.516-8.004 39.202-8.218 59.332-0.034 3.78-1.792 7.313-5.888 8.004-12.006 1.98-22.042 8.363-32.461 13.909-4.779 2.56-9.66 4.907-14.49 7.339-5.948-4.898-3.243-11.691-3.891-17.749zM210.415 379.819c-3.669-5.777-4.011-11.725-0.708-15.019 1.903-1.894 3.9-3.772 6.118-5.274 9.020-6.059 18.116-11.964 27.204-17.937 23.868-15.753 20.582-16.614 33.050 10.53 0.299 0.666 0.102 1.57 0.137 2.347-1.579 0.495-3.26 1.596-4.762 1.365-10.453-1.536-19.652 1.707-27.989 7.492-7.441 5.137-14.507 10.803-21.709 16.265-5.18 3.925-8.943 4.028-11.349 0.23zM254.020 424.823c-2.782 2.918-5.786 4.164-8.875 0.631-4.864-5.53-6.426-11.349-4.096-14.566 1.041-1.451 2.048-3.055 3.413-4.122 14.933-11.52 31.258-21.675 37.692-41.045 0.171-0.512 3.797-0.853 4.463-0.111 4.147 4.693 7.936 9.702 11.776 14.652 0.495 0.657 0.597 1.621 0.853 2.441-0.905 1.536-1.493 3.584-2.842 4.463-15.932 10.53-29.286 23.979-42.385 37.666zM296.346 446.089c-3.959 6.4-11.025 5.12-17.306 3.618-0.981-0.23-2.219-2.517-2.065-3.652 0.23-1.647 1.331-3.465 2.603-4.608 10.556-9.387 21.205-18.662 31.829-27.964 0-0.512 0.102-0.99 0.085-1.51 0.375 0 0.751 0.060 1.126 0.085 0.768-1.314 1.425-2.816 2.56-3.388 1.161-0.555 3.055 0.41 4.625 0.683-1.007 0.939-1.894 2.423-3.055 2.731-1.28 0.324-2.714 0.128-4.139 0-0.145 0.239-0.282 0.486-0.427 0.708l-0.785 0.683c-0.341 12.945-8.721 22.409-15.053 32.623zM318.72 225.638c2.731-7.595 8.567-10.701 17.050-10.837 8.747-0.154 16.469 2.586 21.76 9.25 5.547 7.031 11.127 14.549 14.473 22.767 10.633 26.129 18.637 53.035 18.637 81.954-1.417 9.779-2.15 19.746-4.523 29.303-1.963 8.021-8.448 11.537-16.529 11.264-12.783-0.427-22.443-6.537-29.85-16.503-13.329-17.92-19.849-38.502-22.733-60.331-1.28-9.882-1.007-20.036-3.089-29.696-2.85-13.227 0.546-25.199 4.813-37.171zM270.933 849.169c-0.299 0.887-3.072 0.99-6.246 1.911-1.707-1.681-6.204-4.301-5.871-6.101 1.604-9.489 4.369-18.859 11.904-25.685 1.084-0.973 3.43-1.34 4.881-0.922 1.425 0.401 3.755 2.475 3.558 3.268-2.449 9.242-5.205 18.432-8.235 27.529zM330.291 848.538c-2.389 10.155-9.387 10.069-19.046 7.987-1.792-0.401-4.352-4.096-4.070-5.854 1.126-6.929 2.901-13.824 5.094-20.514 2.014-6.118 11.776-9.728 17.835-6.187 2.449 1.408 3.328 5.521 4.548 7.808-1.69 6.451-3.157 11.571-4.369 16.751zM376.713 854.17c-0.324 1.51-4.267 3.209-6.374 2.987-2.133-0.205-5.888-2.773-5.803-4.096 0.725-9.762 1.911-19.541 3.61-29.184 0.649-3.789 4.215-5.888 8.107-5.222 2.219 0.367 4.207 2.304 6.571 3.721-2.014 10.982-3.669 21.47-6.093 31.804zM375.347 783.462c-20.975 11.887-44.117 10.266-66.816 7.202-13.705-1.852-23.637-12.646-24.107-25.941-0.486-12.655-1.067-26.061 2.389-37.956 10.889-37.18 13.397-38.417 45.807-56.9 20.028-11.435 41.557-12.629 63.642-10.897 10.035 0 20.139-0.7 30.080 0.171 14.814 1.314 28.331 6.571 39.552 16.811 14.353 13.124 15.846 31.625 2.748 46.165-6.016 6.724-13.082 12.911-20.719 17.707-23.893 15.002-48.026 29.696-72.576 43.639zM558.985 739.038c-2.031 6.059-3.985 12.134-5.564 18.304-4.881 18.995-12.348 35.994-30.481 46.473-4.48 2.62-6.844 8.704-11.179 11.836-9.557 6.912-19.516 13.38-29.73 19.302-8.192 4.736-9.685 3.43-11.119-6.997-0.614-4.437-1.024-9.045-2.603-13.184-1.707-4.463-5.751-7.185-10.667-7.339-4.966-0.145-9.472 2.475-10.82 6.912-2.833 9.472-4.983 19.234-6.349 29.013-0.529 3.721-0.017 6.963-3.925 8.96-4.924 2.509-9.813 5.188-15.531 3.456-1.493-0.469-3.362-2.202-3.627-3.635-0.666-3.541-0.785-7.253-0.597-10.837 0.171-3.644 0.819-7.253 1.553-10.837 1.792-8.841 1.818-18.842 6.229-26.138 3.883-6.4 13.082-9.387 19.413-14.507 16.247-13.261 32.486-26.539 48.23-40.388 13.824-12.151 20.053-28.928 20.181-46.421 0.188-22.673-8.704-42.556-26.795-57.429-13.619-11.196-28.979-19.354-45.995-23.381-26.778-6.349-53.888-9.114-81.271-3.115-5.316 1.161-10.837 1.604-16.282 1.911-22.579 1.28-42.368 10.121-60.715 22.613-8.277 5.666-15.616 12.817-24.218 17.869-24.636 14.387-32.896 38.144-37.265 63.829-3.652 21.47 0.981 41.728 13.116 60.049 3.004 4.582 6.101 9.079 9.165 13.619 2.321 3.439 1.988 6.622-0.444 9.984-4.267 5.922-8.218 12.058-12.501 17.971-3.132 4.318-7.987 5.973-8.277 3.465-0.324-2.347 0.768-4.898 1.365-7.339 0.427-1.707 1.323-3.362 1.536-5.12 0.375-3.371-3.413-7.808-6.485-7.509-8.038 0.768-16.060 2.082-24.107 2.415-1.877 0.068-4.284-2.714-5.632-4.736-0.546-0.819 0.597-3.567 1.732-4.608 4.676-4.292 9.984-7.936 14.396-12.459 4.070-4.181 5.069-9.6 2.517-15.164-2.534-5.615-7.484-7.817-13.201-8.107-9.233-0.478-18.261 0.478-26.334 5.632-4.625 2.927-9.216 5.871-14.046 8.448-1.067 0.572-4.25-0.427-4.233-0.64 0.051-2.389-0.282-5.999 1.084-6.912 5.231-3.558 11.093-6.178 16.64-9.259 7.168-3.968 14.558-7.62 21.333-12.186 7.407-5.052 10.24-13.056 7.765-18.748-3.012-6.912-12.032-10.701-21.163-8.107-6.997 1.963-13.739 4.838-20.523 7.526-3.157 1.237-5.205-0.085-6.101-2.748-0.512-1.536-0.384-4.011 0.563-5.18 2.193-2.731 4.727-5.461 7.68-7.339 9.216-5.888 18.961-11.008 27.972-17.152 8.934-6.059 10.837-12.518 5.291-23.569-3.209-6.332-2.543-10.103 2.355-13.909 14.387-11.204 28.715-22.494 43.366-33.365 18.466-13.705 38.912-23.637 60.843-30.635 23.381-7.475 46.643-15.488 70.007-23.091 14.421-4.693 25.173-14.404 34.918-25.387 5.018-5.666 1.553-15.548-5.769-17.647-2.603-0.742-5.376-0.853-8.081-1.28-3.908-0.64-9.361 3.055-11.145-2.543-0.512-1.553 4.318-5.248 7.168-7.339 5.871-4.309 12.237-7.979 18.048-12.373 4.762-3.567 6.272-8.849 5.188-14.635-1.109-5.931-4.898-9.728-10.701-11.093-3.516-0.828-7.27-0.657-10.837-1.365-3.243-0.623-3.584-2.56-2.15-5.547 2.304-4.821 5.231-9.745 5.888-14.874 1.391-11.034-9.839-19.302-19.84-14.916-4.949 2.167-9.532 5.291-14.063 8.303-10.010 6.605-11.179 6.571-20.565-1.86-3.729-3.328-5.308-6.801-3.311-11.964 1.963-5.035 3.157-10.411 4.096-15.735 0.853-4.847 3.174-6.059 7.305-4.036 14.464 7.1 29.901 7.424 45.5 6.571 2.731-0.154 5.547-0.299 8.107-1.135 7.356-2.347 13.073-6.886 14.66-14.763 1.246-6.144 0.546-12.629 4.898-18.133 14.268-18.15 18.799-39.134 16.947-61.355 1.024-19.797-3.379-38.511-8.021-57.062-1.963-7.748-2.859-14.020 4.011-19.652 1.963-1.621 3.78-4.608 3.84-6.963 0.085-3.388-0.444-8.141-2.645-9.899-4.838-3.908-10.923-6.272-16.444-9.301-5.871-3.226-7.595-7.561-5.12-13.457 1.758-4.215 3.874-8.277 5.828-12.373 2.62-5.632 1.468-10.624-2.5-15.138-4.83-5.478-9.668-6.656-17.101-3.977-2.56 0.939-5.018 2.219-7.424 3.499-3.584 1.877-6.793 1.647-10.112-0.751-10.641-7.68-22.426-11.563-35.729-11.904-16.017-0.375-30.805 1.809-43.366 12.971-3.277 2.901-7.765 4.523-11.904 6.34-1.434 0.631-4.13 0.802-5.035-0.085-7.663-7.714-15.36-15.36-25.173-20.48-0.128-0.068 0.597-3.2 1.425-3.516 11.093-4.096 22.033-8.96 33.451-11.725 48.751-11.776 98.048-20.053 148.224-23.1 17.306-1.058 34.304-4.096 51.678-0.427 5.103 1.109 10.803-1.067 16.23-1.152 22.784-0.384 45.568-0.58 68.378-0.649 1.382 0 3.482 1.596 3.968 2.901 0.512 1.391-0.017 3.823-1.024 4.949-3.695 4.011-7.509 7.979-11.776 11.349-3.516 2.773-7.595 5.171-12.544 3.209-6.861-2.731-12.459 0.887-18.039 3.866-5.069 2.731-8.337 7.023-8.747 12.988-0.205 2.731-0.060 5.487-0.085 8.192 0 6.485-3.473 10.027-9.574 11.221-2.662 0.512-6.81-0.282-7.851 1.22-5.632 8.064-11.435 16.265-15.258 25.259-1.877 4.352-0.282 10.667 1.024 15.787 4.838 18.603 8.141 37.393 8.841 56.525 0.683 20.070 0.384 40.166 0.896 60.245 0.427 16.691-4.122 32.495-7.74 48.469-2.475 10.906-8.704 19.823-16.299 28.041-9.899 10.718-19.149 22.050-28.672 33.109-4.907 5.717-7.765 12.032-8.073 19.797-0.23 6.272-0.981 12.8-3.004 18.688-3.968 11.631-0.529 21.504 5.461 31.113 4.309 6.929 9.387 13.517 12.945 20.821 2.185 4.489 4.386 7.458 9.37 8.491 13.141 2.731 22.784 11.042 31.77 20.378 14.481 15.087 29.645 29.585 43.281 45.414 6.366 7.381 11.665 16.811 14.234 26.18 7.731 28.416 11.281 57.276 1.579 86.17zM948.13 487.219c0.026-20.958-0.239-41.924-0.939-62.857-0.137-4.318-1.835-9.003-4.113-12.698-4.096-6.716-10.897-8.849-18.688-9.318-19.371-1.152-37.922 3.84-56.789 6.682-8.934 1.331-17.954 2.364-26.965 2.987-4.932 0.341-8.277-3.157-8.96-8.235-4.122-30.78-4.71-61.747-5.077-92.732-0.085-7.279 0.23-14.609-0.384-21.845-1.237-14.481-10.47-24.235-24.491-24.576-29.329-0.683-58.095 2.961-86.076 12.305-11.947 4.011-17.519 12.288-18.586 24.252-0.316 3.618-0.256 7.287-0.299 10.923-0.213 20.975-0.512 41.941-0.614 62.908-0.085 25.199 0 25.284-25.489 30.319-6.229 1.229-12.732 1.161-18.944 2.509-7.936 1.749-17.604 2.202-23.057 7.083-8.405 7.552-18.295 11.605-27.588 17.067-7.484 4.403-11.836 10.948-14.464 19.081-6.63 20.395-6.716 41.421-4.83 62.268 1.22 13.312 8.166 23.381 22.98 27.153 8.909 2.244 17.51 4.642 26.743 4.352 11.861-0.41 23.697-0.879 35.533-0.905 10.923-0.017 21.845 0.384 32.785 0.87 4.096 0.171 6.767 2.884 7.1 6.869 0.546 6.34 0.401 12.74 0.734 19.089 1.067 19.081 1.587 38.229 3.584 57.216 2.031 19.319 14.933 30.805 33.903 32.256 4.54 0.324 9.344-0.29 13.568 1.007 26.061 7.987 50.432-1.502 75.196-6.801 9.199-1.963 13.252-9.387 15.445-17.451 1.365-5.163 1.092-10.82 1.161-16.265 0.171-11.836 0.051-23.68 0.051-35.516h-1.877v-41.045c0.026-12.527 1.724-15.241 13.244-15.974 14.507-0.896 29.099-0.614 43.648-0.939 9.984-0.239 19.994-0.461 29.952-1.058 4.181-0.256 6.571-3.533 6.229-7.398-0.512-6.571 0.478-12.459 3.379-18.466 1.903-3.959 3.029-8.704 3.029-13.107zM908.023 449.971c-7.185 32.708 3.814 29.662-34.534 29.559-16.452-0.034-32.785 0.341-48.947 3.797-18.236 3.857-28.902 14.848-30.234 33.604-1.237 17.323 0.068 34.56 3.601 51.669 2.97 14.353 4.198 28.902-1.707 43.068-2.645 6.366-5.171 7.748-12.51 5.948-2.645-0.631-5.291-1.237-7.902-1.92-13.713-3.686-18.313-9.387-18.15-22.869 0.017-2.679 1.485-5.419 1.263-8.021-1.604-18.159-3.43-36.267-5.265-54.391-0.299-2.697-1.050-5.376-1.604-8.021-2.167-10.411 2.782-21.862-4.608-31.488-9.899-0.29-19.84 0-29.679-1.041-15.753-1.664-30.763 1.98-46.037 4.523-15.898 2.628-17.579 1.254-24.013-14.49-2.765-6.801-0.427-13.653 6.263-15.599 15.616-4.523 31.164-9.796 47.582-10.598 3.285-0.154 7.509 0.896 9.916 3.004 9.882 8.704 19.746 7.68 30.123 1.365 9.301-5.666 19.243-10.47 27.819-17.067 9.899-7.637 8.448-15.932-2.645-20.565-3.328-1.382-7.066-1.749-10.47-3.004-3.84-1.417-5.734-4.966-5.163-8.619 0.512-3.243 2.099-6.98 4.48-9.079 3.354-2.901 7.936-4.352 11.836-6.699 3.098-1.877 6.144-3.925 8.9-6.289 7.637-6.571 5.291-18.859-4.608-21.47-6.613-1.741-13.713-1.809-20.634-2.509-0.068 0.213-0.171 0.375-0.222 0.614-0.555 0.196-1.109 0.41-1.647 0.657l-1.109 1.647c0.171-0.512 0.23-1.195 0.58-1.434 0.154-0.102 0.358-0.137 0.529-0.213l0.913-1.365c0.316 0.043 0.64 0.060 0.956 0.085 1.792-5.803 8.047-5.973 11.998-9.062 2.833-2.236 6.17-3.866 8.789-6.298 6.938-6.434 6.161-15.77-1.877-20.907-2.987-1.894-6.767-2.475-10.001-4.079-0.452-0.213-0.316-3.413 0.512-4.147 6.272-5.513 13.568-9.148 22.016-9.045 1.929 0.043 5.393 3.072 5.393 4.745 0.102 9.020-0.546 18.048-1.195 27.051-0.341 5.376-2.961 11.349-1.365 15.915 4.693 13.397 3.089 27.051 3.669 40.619 0.188 4.54 0.171 9.105 0.256 13.679 0.614 36.847 1.792 33.502 32.939 33.792 10.923 0.128 21.931 1.963 32.768 1.212 14.455-0.998 28.791-3.755 43.204-5.717 6.528-0.879 11.162 3.26 9.813 9.438z"></path>
</symbol>
<symbol id="github" viewBox="0 0 1024 1024">
  <title>github</title>
  <path d="M879.215 304.282c-2.662-7.731-4.881-15.701-6.417-23.723-2.876-15.019-11.059-27.119-21.376-37.461-9.515-9.557-18.483-19.925-31.573-25.668-7.654-3.362-10.556-9.694-9.839-19.866 2.304-32.811 7.62-64.956 16.154-96.614 3.618-13.431 5.103-26.88 3.029-40.619-1.621-10.812-12.766-16.597-22.869-11.605-5.683 2.799-11.264 6.161-16.154 10.172-21.137 17.365-42.769 34.219-62.669 52.941-13.167 12.399-27.989 20.378-44.885 24.713-13.167 3.388-27.034 4.053-40.218 7.458-27.52 7.1-56.252 2.116-83.712 9.131-2.543 0.649-5.547 0.273-8.158-0.341-8.166-1.92-16.179-0.87-24.405-0.256-29.167 2.219-58.334 2.176-87.125-4.011-4.326-0.939-8.755-2.748-12.373-5.239-5.231-3.601-10.564-7.595-14.464-12.493-8.294-10.411-19.823-15.445-30.908-21.777-18.859-10.786-41.25-14.763-57.446-30.754-4.582-4.523-11.383-4.506-18.091-2.244-7.424 2.475-13.338 6.613-16.469 13.449-4.54 9.882-8.909 19.849-8.875 31.275 0.119 28.314-0.768 56.636-0.341 84.932 0.188 10.735-2.022 18.458-10.359 26.394-17.323 16.503-31.215 36.523-36.403 60.058-10.53 47.821-11.247 95.625 6.98 142.319 4.318 11.025 8.875 22.187 11.213 33.69 4.736 23.296 18.236 41.933 32.102 59.759 9.284 11.947 20.335 23.757 34.364 30.891 17.92 9.131 36.523 16.299 57.054 17.809 16.316 1.195 32.529 3.618 48.768 5.803 9.020 1.22 17.963 3.055 26.914 4.668 4.352 0.802 5.436 4.070 2.5 7.876-3.328 4.352-6.281 9.173-10.351 12.689-13.739 11.861-21.734 26.581-25.173 44.288-1.476 7.612-6.127 11.324-13.653 10.709-16.299-1.331-32.64-3.072-48.725-5.948-8.021-1.417-15.087-6.033-19.729-13.628-7.637-12.459-15.275-24.917-23.697-36.838-7.339-10.377-15.232-20.48-23.808-29.867-6.955-7.637-16.299-11.52-27.051-10.991-16.384 0.853-32.828 1.195-49.178 2.534-10.965 0.905-21.163 4.412-30.464 11.042-9.617 6.852-20.113 12.518-30.43 18.347-5.7 3.243-10.411 6.946-13.602 12.954-4.053 7.595-0.717 15.155 8.004 15.334 6.229 0.128 12.766-0.495 18.688-2.321 5.99-1.877 11.571-5.376 17.024-8.687 14.592-8.789 30.037-12.766 47.087-10.18 5.41 0.819 10.94 1.050 16.41 1.109 8.277 0.060 13.824 4.241 17.493 11.093 4.762 8.832 9.626 17.664 13.594 26.854 7.031 16.265 19.081 28.843 30.515 41.728 6.571 7.39 15.36 12.425 25.020 15.974 22.579 8.277 45.739 11.998 69.734 11.179 15.957-0.538 19.2 1.673 25.37 18.944 1.792 5.035 2.261 10.667 2.705 16.068 1.937 23.637-8.235 44.425-16.128 65.655-9.694 26.027-31.275 36.651-56.474 41.941-3.413 0.717-8.533 1.109-10.607-0.785-11.887-10.786-30.549-11.469-39.1-27.452-3.465-6.485-15.104-4.028-17.98 3.029-1.024 2.5-2.031 5.137-2.347 7.799-2.5 21.308 7.014 38.997 17.664 56.149 1.749 2.816 5.461 5.137 8.73 6.161 7.748 2.432 15.718 5.12 23.723 5.615 16.41 1.024 32.879 0.828 49.306 0.836 13.517 0.017 25.796-5.35 33.707-15.462 20.651-26.453 44.339-51.183 54.144-84.685 1.28-4.352 2.927-8.875 5.632-12.399 2.594-3.388 6.485-6.11 10.342-8.141 3.132-1.621 6.946 3.721 8.047 12.083 0.939 7.211 1.57 14.532 1.621 21.803 0.205 20.992-0.478 42.035 0.205 63.019 0.478 14.95-2.441 28.604-8.175 42.428-3.669 8.823-7.919 13.338-17.451 13.995-4.267 0.282-8.516 2.987-12.459 5.163-3.439 1.911-5.077 5.239-3.499 9.242 7.851 19.712 17.152 25.532 37.632 23.347 4.489-0.495 9.011-1.451 13.295-2.876 13.611-4.523 23.612-12.57 28.783-26.837 6.571-18.116 12.971-35.951 11.52-55.723-0.785-10.906-0.137-21.914-0.137-32.887h-0.154c0-14.609-0.137-29.227 0.068-43.844 0.085-6.366 0.034-12.954 1.587-19.046 5.376-21.265 6.912-43.068 9.967-64.683 0.367-2.645 1.314-5.205 1.98-7.817 1.024 2.799 2.534 5.53 2.901 8.397 0.7 5.436 1.195 10.957 0.939 16.401-0.853 18.671 3.925 36.215 10.667 53.231 5.717 14.387 12.356 28.416 19.029 42.411 7.868 16.444 16.154 32.683 24.363 48.956 2.031 4.028 3.84 8.448 6.827 11.691 14.592 15.65 31.505 27.546 53.094 31.744 13.201 2.577 26.709-3.908 31.317-15.582 5.854-14.874 2.014-28.22-10.837-35.627-6.315-3.627-13.261-6.11-19.797-9.353-4.924-2.441-8.823-5.606-11.392-11.11-5.376-11.546-11.605-22.699-17.886-33.792-6.315-11.162-12.186-22.409-15.334-34.97-1.792-7.049-4.011-14.123-7.083-20.685-7.817-16.691-11.537-34.423-14.507-52.412-2.048-12.587-0.794-18.62 4.326-18.313 8.235 0.512 8.363 8.55 11.75 13.5 1.007 1.451 1.451 3.354 1.929 5.12 6.281 22.528 19.917 41.062 34.014 58.854 17.647 22.246 38.349 41.754 63.147 56.064 19.132 11.068 39.535 18.415 62.268 17.715 34.901-1.067 68.181-40.73 62.822-75.315-1.365-8.875-9.335-13.995-18.236-11.196-4.284 1.331-8.602 3.217-12.203 5.837-6.613 4.796-12.919 10.138-19.029 15.616-9.899 8.9-20.864 10.496-32.683 4.983-9.079-4.215-18.133-8.678-26.624-13.935-22.306-13.781-38.571-33.664-51.371-55.979-14.993-26.069-28.612-52.949-42.325-79.727-9.25-18.057-19.9-34.782-36.548-46.993-1.246-0.905-2.065-2.406-3.072-3.627 1.451-1.050 2.731-2.697 4.352-3.072 25.028-5.632 48.299-16.213 72.158-25.225 8.465-3.2 17.613-4.608 26.351-7.168 28.049-8.235 55.782-17.050 78.848-36.369 14.677-12.288 29.696-24.252 45.252-35.43 21.777-15.676 32.768-38.605 43.179-61.909 2.918-6.528 4.779-14.080 4.966-21.197 0.836-33.732 2.534-67.584-8.789-100.284zM813.679 285.167c0.623-1.621 1.826-3.183 3.157-4.326 1.152-1.007 3.814-2.287 4.181-1.903 7.817 8.277 11.281 18.176 9.6 29.525-0.213 1.365-2.364 2.449-3.78 3.797-0.58 0.119-1.604 0.683-2.219 0.384-9.071-4.181-14.618-18.057-10.948-27.477zM829.065 369.63c-2.031 1.86-4.284 4.096-6.801 5.973-0.307 0.23-3.157-2.031-3.038-2.304 1.348-2.884 2.97-5.632 4.719-8.32 0.401-0.597 2.133-1.109 2.202-1.007 0.853 1.365 1.536 2.867 2.901 5.666zM791.808 250.487c0.026-0.393 1.28-0.956 1.946-0.905 4.966 0.324 9.318 6.656 7.535 11.383-0.461 1.28-2.509 1.988-4.352 3.362-1.843-1.323-5.035-2.389-5.547-4.241-0.828-2.953 0.068-6.4 0.427-9.609zM792.405 323.567c0.623-1.195 2.79-1.57 4.241-2.33 7.851 3.302 12.032 14.404 7.987 21.845-0.614 1.152-3.268 2.364-4.267 1.929-9.020-3.891-12.399-13.090-7.97-21.436zM748.117 134.502c0.913-1.024 3.883-1.903 4.318-1.408 7.066 8.107 13.909 16.401 20.685 24.747 0.427 0.512 0.119 1.852-0.196 2.662-0.341 0.794-1.135 1.417-1.707 2.108-1.673-0.401-3.499-0.512-5.009-1.28-9.446-4.693-15.104-12.885-19.43-22.076-0.563-1.178 0.324-3.618 1.34-4.762zM731.93 166.972c1.246-0.887 3.9-1.69 4.693-1.041 6.793 5.461 14.054 10.684 16.299 19.2-0.768 2.5-1.126 4.267-1.86 5.845-2.202 4.753-7.646 6.596-10.633 3.447-4.292-4.48-8.422-9.131-12.288-13.995-3.302-4.139-1.707-9.557 3.78-13.457zM732.416 291.473c-0.802 1.28-2.765 1.809-4.25 2.662-0.819-1.417-2.449-2.944-2.253-4.181 0.427-2.816 2.56-4.369 5.291-2.56 0.981 0.649 1.732 3.217 1.212 4.062zM714.633 203.989c5.888 1.655 10.214 9.148 15.13 14.148 0.512 0.529 0.427 1.69 0.623 2.56-0.213 1.758 0.034 3.755-0.734 5.222-4.523 8.806-9.114 17.579-13.995 26.197-2.645 4.736-6.775 6.007-11.307 3.789-4.036-1.963-7.953-4.215-11.776-6.588-3.456-2.15-4.54-5.188-2.509-9.045 4.181-7.979 8.192-16.043 12.518-23.953 2.944-5.316 5.325-14.208 12.032-12.331zM694.921 282.624c-0.785 1.152-1.92 2.611-3.098 2.799-2.586 0.427-5.265 0.128-7.919 0.128v0.341c-2.645-0.119-5.461 0.282-7.868-0.512-2.099-0.683-5.018-2.509-5.291-4.215-0.358-2.099 1.075-5.205 2.773-6.741 1.553-1.399 4.898-2.372 6.699-1.655 4.864 1.946 9.37 4.847 13.909 7.509 0.572 0.341 1.092 1.911 0.794 2.338zM658.654 216.73c7.467-14.455 14.763-29.013 22.75-43.196 1.937-3.439 6.502-2.918 9.515-0.282 2.62 2.27 5.786 5.035 3.243 9.114-8.576 13.858-17.195 27.682-26.197 41.242-0.828 1.229-4.804 0.973-7.040 0.375-1.067-0.29-1.519-2.97-2.304-4.693-0.017-0.768-0.341-1.843 0.034-2.56zM640.282 174.746c3.721-2.048 8.499-2.304 12.868-2.876 0.896-0.111 2.048 2.116 3.84 4.113-5.376 8.192-10.718 16.58-16.401 24.747-0.7 1.024-3.371 1.485-4.736 1.041-1.485-0.495-3.2-2.15-3.652-3.652-3.345-11.238-1.195-18.202 8.090-23.356zM650.419 257.050c-2.108 8.678-5.035 17.152-7.936 25.626-0.324 0.998-2.321 1.434-3.499 2.108-4.864-3.925-8.789-19.115-6.195-24.695 1.502-3.217 3.243-6.528 5.7-8.994 1.519-1.553 4.668-2.526 6.827-2.159 4.122 0.683 5.939 4.659 5.12 8.107zM611.874 221.909c0.614-1.024 3.132-0.905 5.888-1.596 1.724 2.56 5.717 5.803 5.257 8.243-2.048 10.837-8.021 20.002-15.36 28.075-1.024 1.109-5.205 0.384-7.185-0.768-2.116-1.195-5.205-4.847-4.719-5.803 4.949-9.609 10.462-18.944 16.111-28.16zM566.562 225.067c5.854-9.916 11.819-19.78 18.202-29.355 0.751-1.109 5.205-1.28 6.4-0.188 1.587 1.425 3.004 5.436 2.116 6.784-6.699 10.325-13.969 20.292-21.163 30.293-0.41 0.597-1.621 0.597-2.628 0.939-1.024-1.067-2.56-2.014-3.004-3.328-0.512-1.579-0.683-3.84 0.085-5.146zM585.395 282.581c-1.109 0.853-2.167 2.321-3.098 2.236-1.22-0.111-2.347-1.451-3.516-2.253 0.631-0.563 1.348-1.681 1.877-1.596 1.553 0.256 3.029 0.99 4.736 1.621zM533.811 198.682c1.707-4.122 3.669-8.158 5.205-12.356 3.84-10.667 3.772-10.692 15.812-10.752 1.587 0.137 4.634-0.341 6.827 0.828 1.809 0.973 4.181 4.89 3.61 5.76-5.803 8.96-11.861 17.766-18.492 26.112-2.5 3.14-6.784 1.92-9.728-0.282-2.944-2.193-4.898-5.291-3.226-9.301zM552.96 278.187c0.205 7.125-1.741 9.097-9.259 8.9-2.586-0.060-5.291-0.623-7.646-1.664-1.195-0.529-2.688-3.132-2.304-3.925 3.584-7.134 7.441-14.165 11.571-21.018 0.631-1.050 3.217-1.604 4.651-1.28 1.451 0.324 3.61 2.065 3.584 3.157-0.085 3.524-1.007 7.031-1.604 10.641 0.341 1.664 0.939 3.413 0.998 5.188zM506.027 176.708c3.413-0.768 6.997-1.024 10.206-1.417 3.925 0.341 7.526 0.393 11.008 1.067 1.195 0.23 2.261 1.894 3.012 3.123 0.222 0.375-0.597 1.673-1.212 2.261-9.003 8.567-17.647 8.021-24.627-1.707-0.367-0.512 0.802-3.157 1.596-3.328zM526.217 239.94c-0.836 7.202-4.369 13.611-11.042 17.553-0.734 0.427-1.664 0.529-2.517 0.768-3.268 0.486-8.585-6.212-7.168-9.771 1.98-4.915 4.437-9.754 7.467-14.063 1.135-1.621 5.316-2.987 6.682-2.133 2.833 1.732 6.844 5.291 6.571 7.646zM468.241 218.718c1.835-4.011 4.898-7.475 7.569-11.093 6.861-9.318 13.338-8.934 19.908 1.161 0.486 0.742 0.836 1.587 1.246 2.389-0.427 1.621-0.495 3.499-1.34 4.864-2.389 3.789-5.035 7.45-7.714 11.051-6.042 8.090-12.476 7.902-18.458-0.905-1.34-1.946-2.133-5.504-1.237-7.45zM498.987 283.793c-0.23 1.195-2.304 2.355-3.797 2.867-1.587 0.538-3.43 0.282-6.366 0.444-1.314-0.358-3.925-0.717-6.084-1.852-0.742-0.393-1.161-3.089-0.597-4.096 3.84-6.724 8.294-7.253 14.763-1.775 1.178 0.998 2.355 3.106 2.091 4.403zM422.827 177.323c5.308-0.299 10.752-0.742 15.957 0 7.902 1.135 15.684 3.157 23.45 5.060 1.084 0.256 1.766 2.193 3.132 4.011-5.564 5.803-10.88 11.81-16.785 17.152-1.57 1.434-5.291 1.809-7.424 1.024-9.506-3.499-16.862-9.779-21.862-18.714-1.724-3.123 0.171-8.329 3.524-8.533zM460.8 260.139c-0.384 0.939-1.084 3.584-2.432 5.82-4.668 7.697-9.429 15.343-14.421 22.835-2.159 3.285-5.521 4.267-9.387 2.876-4.71-1.732-7.492-6.093-6.545-10.359 0.384-1.758 0.427-3.755 1.28-5.205 5.154-8.491 10.266-16.998 15.957-25.088 1.109-1.604 4.864-2.261 7.168-1.894 4.198 0.666 9.020 6.571 8.38 11.008zM383.889 158.336c0.051 0.085 0.060 0.205 0.102 0.299l1.408 1.058c0.171 0.256 0.282 0.683 0.358 1.109l3.328 1.092c-3.046 2.884-3.021 0.614-3.328-1.084-0.375-0.119-0.751-0.256-1.126-0.367-0.196-0.597-0.367-1.246-0.649-1.818l-1.434-1.084c0.452 0.256 1.075 0.393 1.323 0.768zM384.060 240.768c7.023-6.997 14.208-13.884 21.419-20.71 1.229-1.161 3.012-1.707 5.12-2.85 3.311 2.62 7.526 4.864 10.112 8.363 1.835 2.449 3.072 7.458 1.792 9.762-5.717 10.197-12.339 19.883-18.842 29.636-3.447 5.171-8.397 6.17-14.114 3.328-17.724-8.858-18.825-14.217-5.495-27.52zM372.591 183.68c0.802 1.57 1.314 3.285 2.449 6.229-1.067 2.253-2.116 5.666-4.096 8.405-5.769 7.953-11.819 15.701-17.954 23.381-1.57 1.963-4.13 4.463-6.502 1.724-2.082-2.423-3.703-5.803-4.070-8.943-0.256-2.304 1.57-5.035 2.918-7.305 4.992-8.465 10.010-16.922 15.36-25.173 3.755-5.803 8.499-5.035 11.887 1.664zM323.183 157.355v-5.461c0-27.631 0-27.631 23.825-16.128 1.621 0.794 3.268 1.57 4.881 2.406 3.618 1.903 5.547 4.693 3.465 8.687-2.935 5.598-5.7 11.383-9.429 16.418-6.596 8.875-10.3 20.079-20.463 26.146l-3.072-32.026c0.256-0.017 0.529-0.043 0.802-0.051zM302.592 253.406c-0.051-0.171-0.043-0.307-0.085-0.478 0.171-0.017 0.273-0.102 0.427-0.128-0.427-5.444 2.389-9.242 6.571-12.305 0.341-0.256 1.391-0.068 1.724 0.29 0.512 0.563 1.050 1.553 0.887 2.167-1.365 4.864-3.695 8.909-9.165 9.865 0.017 0.171-0.034 0.341-0.017 0.512-0.137 0.026-0.23 0.068-0.341 0.085 1.621 6.963-3.635 11.435-6.4 16.785-0.393 0.742-1.323 1.195-2.005 1.775-0.666-1.621-2.133-3.388-1.877-4.83 1.178-6.17 2.756-12.288 10.274-13.713zM283.674 386.594c-1.067-1.092-2.347-2.304-2.679-3.686-0.64-2.628-0.683-5.402-1.143-9.557 0.87-4.011 1.417-9.54 3.328-14.558 4.838-12.757 10.223-25.301 15.642-37.82 0.393-0.913 2.859-1.152 4.395-1.246 0.512-0.051 1.732 1.493 1.587 1.997-4.139 13.909-8.644 27.537-6.997 42.615 0.973 8.875-8.107 13.773-11.947 20.881-0.375 0.7-2.065 1.51-2.193 1.365zM325.257 375.817c-13.67 20.343-17.553 43.213-17.408 67.157 0.068 11.307 0.043 22.613 0.043 33.929 0.205 0.222 0.358 0.461 0.555 0.683l0.051 0.768c1.237 0.555 2.662 1.007 3.157 1.946 0.597 1.135-0.034 2.927-0.137 4.437-0.853-0.768-2.133-1.382-2.475-2.33-0.444-1.246-0.452-2.662-0.538-4.045-0.188-0.102-0.41-0.171-0.597-0.282v-1.195c-15.343-17.613-20.463-36.557-14.165-55.689 4.523-13.705 9.412-27.358 15.189-40.567 2.389-5.513 7.45-9.933 11.605-14.575 0.572-0.666 3.294-0.282 4.326 0.512 1.297 0.998 2.56 2.901 2.603 4.437 0.060 1.596-1.195 3.345-2.185 4.813zM337.101 345.079c-2.031 2.816-4.523 5.35-7.117 7.706-0.819 0.742-2.475 0.751-3.738 0.7-0.341-0.017-0.853-1.468-0.896-2.287-0.469-5.581 0.785-10.718 5.973-13.483 1.425-0.734 4.207 1.126 6.161 1.724-0.119 2.492 0.41 4.523-0.393 5.632zM318.242 294.178c-0.324 0.444-1.655 0.649-2.133 0.341-0.708-0.427-1.69-1.579-1.536-2.133 3.439-12.271 8.508-23.671 18.705-31.932 0.367-0.299 2.714 1.86 4.147 2.876 0.341 0.853 1.195 2.048 0.887 2.475-6.588 9.515-13.295 18.978-20.079 28.373zM342.007 310.135c5.171-9.412 11.076-18.449 16.845-27.563 0.427-0.657 1.553-0.87 2.347-1.28 1.758 0.341 3.669 0.367 5.239 1.109 3.285 1.553 6.502 3.302 9.515 5.308 12.715 8.482 12.51 25.259-0.393 33.365-2.304 1.451-4.796 2.586-7.117 3.994-5.436 3.285-10.368 2.133-15.13-1.425-2.918-2.167-6.349-3.797-8.789-6.4-1.621-1.758-3.379-5.606-2.543-7.1zM747.52 462.131c-0.717 1.655-0.964 3.516-1.647 5.205-17.041 43.435-22.912 48.896-66.389 65.34-18.987 7.185-38.17 11.819-58.624 10.88-11.861-0.546-23.74-0.102-35.627-0.102l-0.068 1.178c-23.637-1.638-47.3-3.328-70.929-4.864-6.383-0.444-12.817-0.99-19.166-0.64-30.327 1.681-59.989-4.48-89.907-7.287-12.288-1.152-22.886-6.118-30.532-16.128-6.613-8.687-13.286-17.348-19.234-26.479-7.714-11.793-10.803-24.9-9.702-39.117 1.246-16.341-0.512-33.024 4.796-48.879 2.27-6.801 4.565-14.268 9.097-19.499 10.701-12.399 22.554-23.851 34.364-35.217 3.132-3.004 7.68-4.949 11.913-6.298 17.365-5.478 34.697-10.522 53.385-10.155 21.845 0.427 43.605-1.212 65.451-4.096 22.511-2.953 45.568-2.099 68.352-2.645 9.105-0.239 17.946-0.043 26.991-2.935 7.595-2.415 16.213-1.536 24.405-2.065 16.299-1.067 32.657 1.57 49.067-2.022 6.426-1.408 15.812 0.043 20.591 4.070 9.233 7.791 21.316 13.466 23.782 28.186 1.766 10.615 7.236 20.591 10.88 30.908 9.813 27.691 10.598 55.27-1.263 82.662zM751.77 262.298c-3.243 3.328-2.97 11.11-10.411 9.455-4.838-1.075-5.658-8.021-1.963-15.872 3.038-6.4 5.99-12.902 9.677-18.927 0.939-1.536 4.813-2.543 6.741-1.929 2.133 0.7 3.61 3.524 5.12 5.163-0.367 8.909-3.499 16.299-9.165 22.118zM772.079 304.495c-0.512 0.401-1.417 0.316-3.328 0.683-1.621-2.304-4.395-4.813-5.146-7.817-1.399-5.547 1.903-9.967 5.487-13.978 2.534-2.833 5.001-1.109 6.485 0.683 5.12 6.144 3.499 14.865-3.499 20.429zM778.735 372.028c-1.024-1.331-2.901-2.731-2.799-3.977 0.196-2.517 1.109-5.188 2.432-7.356 0.785-1.254 3.243-2.586 4.386-2.202 1.229 0.427 2.278 2.731 2.509 4.352 0.768 5.427-2.859 10.274-6.519 9.182zM781.892 127.206c-1.408 3.823-5.521 4.335-8.678 1.297-5.419-5.291-5.973-9.574-1.621-13.773 1.963-1.877 4.079-3.601 6.315-5.154 1.451-1.024 4.437-2.5 4.625-2.219 1.485 1.98 2.415 4.378 3.55 6.656-1.451 4.642-2.628 8.994-4.181 13.193zM801.587 401.212c0.341 7.031-4.164 11.418-8.764 15.667-0.512 0.478-2.219 0.529-2.526 0.145-0.853-1.169-2.167-3.115-1.732-3.925 2.901-5.376 5.325-11.486 12.8-12.1-0.956-5.888 1.28-10.112 6.656-12.629 0.512-0.256 1.536 0 1.997 0.401 0.563 0.512 1.237 1.434 1.169 2.133-0.546 5.82-3.866 9.216-9.574 10.291zM835.038 406.076l-0.444 0.905-0.657 0.896c1.775 15.667-9.131 25.259-18.176 35.712-0.461 0.546-1.638 0.64-2.492 0.64-0.836 0-1.749-0.239-2.475-0.64-0.725-0.41-1.843-1.604-1.775-1.707 8.252-11.375 16.58-22.699 24.917-33.997-0.085-0.597-0.034-1.126-0.137-1.732 0.367-0.068 0.802-0.085 1.229-0.085l1.536-3.115c1.988 3.191 0.171 3.106-1.536 3.115zM697.139 387.84c-0.597-6.707-4.156-11.998-9.173-16.282-5.419-4.634-15.36-6.161-20.463-2.492-11.315 8.107-21.803 17.792-24.405 31.795-3.627 19.371-1.161 38.059 13.397 53.444 7.040 7.45 19.072 9.062 27.196 2.526 8.047-6.485 13.995-14.464 14.481-25.293 0.307-6.366 0.060-12.766 0.060-19.149l0.512-0.017c-0.512-8.192-0.87-16.384-1.604-24.55zM433.237 384.956c-7.731 1.314-13.269 5.717-17.553 11.844-7.637 10.897-9.643 23.313-10.24 36.471 1.451 8.892 2.389 17.92 4.54 26.641 1.314 5.291 5.052 9.609 10.684 11.554 21.248 7.313 36.181-1.229 39.851-22.912 0.444-2.679 0.478-5.427 0.64-8.149 0.896-15.735-2.935-30.635-8.431-45.141-3.396-9.020-9.813-11.947-19.499-10.308zM588.066 485.342c-5.53 3.098-10.513 7.279-16.213 9.95-14.677 6.869-29.321 9.097-43.503-1.809-4.267-3.285-9.003-6.144-13.875-8.397-3.669-1.69-6.946 0.58-9.515 3.396-2.645 2.884-3.635 5.888-1.877 9.847 9.711 21.717 29.901 24.363 50.901 27.964 7.765-1.963 17.067-2.97 25.131-6.656 8.934-4.096 17.732-9.557 22.332-19.2 2.116-4.437 2.167-8.704-1.135-12.689-2.97-3.584-7.902-4.838-12.237-2.406zM554.735 469.231c7.97-0.708 12.169-5.717 12.288-14.703 0.171-9.429-3.977-14.729-11.546-14.788-9.131-0.068-16.811 6.571-16.282 14.037 0.597 8.166 8.533 16.077 15.531 15.445z"></path>
</symbol>
<symbol id="flickr" viewBox="0 0 1024 1024">
  <title>flickr</title>
  <path d="M415.846 368.469c-22.545-26.155-51.046-43.639-83.541-54.852-26.095-9.003-52.941-13.244-75.264-12.578h-18.961c-53.060-0.145-97.246 20.053-134.17 57.668-26.283 26.769-43.093 58.726-51.994 94.694-6.972 28.245-12.715 56.798-17.707 85.453-5.427 31.121 2.031 59.392 21.163 84.949 23.492 31.386 53.376 54.733 88.124 71.919 47.753 23.62 98.714 31.403 151.433 26.863 24.798-2.133 48.299-10.172 68.608-24.917 59.486-43.162 92.655-101.444 98.415-174.874 0.998-12.698 0.427-25.515 0.751-38.272 0.154-5.41-0.649-11.435 1.399-16.111 8.397-19.226 2.33-35.729-9.003-50.901-12.518-16.768-25.6-33.195-39.253-49.033zM130.321 517.717c-1.024-0.956-2.594-2.108-2.628-3.243-0.213-8.192-0.119-16.384-0.119-24.593h0.375c0-8.209-1.041-16.572 0.188-24.593 3.755-24.32 13.636-45.312 35.738-58.556 1.246-0.751 3.712-0.828 4.847-0.085 1.237 0.819 1.98 2.927 2.202 4.557 0.213 1.724-0.171 3.669-0.768 5.35-9.557 26.564-19.063 53.163-28.843 79.633-2.526 6.827-5.888 13.329-8.986 19.934-0.324 0.734-1.894 1.707-1.997 1.596zM160.119 601.856c-2.304 6.605-6.059 7.117-12.075 1.638-1.348-1.237-2.56-2.611-3.84-3.9-2.773-2.816-4.838-6.852-0.819-9.011 13.355-7.142 17.86-20.105 22.588-32.785 16.555-44.203 32.794-88.525 49.015-132.847 4.676-12.8 8.738-25.805 13.338-38.622 6.016-16.751 9.259-18.79 28.245-18.833 3.157 0 5.257 2.56 4.011 4.949-33.775 65.434-62.293 133.248-90.65 201.114-3.84 9.199-6.554 18.859-9.813 28.279zM215.842 611.465c-2.372 5.837-5.342 11.435-8.431 16.922-0.64 1.126-3.055 1.254-4.676 1.852-1.348-1.075-3.84-2.176-3.84-3.209 0.111-3.499 0.683-7.134 1.818-10.47 14.396-42.129 28.757-84.284 43.452-126.31 10.197-29.141 20.821-58.155 31.471-87.159 3.447-9.387 7.373-18.603 11.418-27.733 2.116-4.821 6.212-6.127 11.247-4.591 3.482 1.050 7.313 1.391 10.411 3.106 1.946 1.084 3.285 4.011 3.9 6.357 0.375 1.408-1.084 3.371-1.877 4.983-21.803 44.032-41.387 89.003-58.368 135.151-11.307 30.703-24.183 60.809-36.506 91.119zM283.75 619.529c-3.652 9.301-6.229 19.012-9.583 28.416-0.495 1.34-2.671 2.065-4.070 3.072-8.875 1.476-18.193-8.499-15.215-16.495 10.795-28.979 22.101-57.771 32.495-86.921 15.915-44.544 31.215-89.31 46.797-133.973 2.099-5.999 4.164-12.015 6.485-17.937 1.621-4.122 4.48-4.727 8.431-1.843 5.154 3.755 10.496 7.322 15.147 11.622 12.646 11.631 12.203 14.387 4.625 27.904-33.451 59.733-60.134 122.564-85.12 186.172zM333.107 641.152c-2.731 2.167-6.204 3.567-9.532 4.736-0.751 0.256-3.413-2.091-3.388-3.157 0.119-2.611 1.058-5.291 2.065-7.765 16.017-39.467 32-78.95 48.213-118.34 6.212-15.104 12.937-29.952 19.601-44.86 0.896-1.997 1.621-5.973 5.18-3.635 1.98 1.314 3.891 4.096 4.181 6.443 0.939 8.073 1.161 16.239 1.451 20.821-0.58 61.483-22.246 109.312-67.789 145.749zM990.985 452.079c-2.244-16.691-9.131-31.317-20.053-44.143-8.277-9.702-16.213-19.712-24.294-29.568-26.078-31.915-58.283-54.468-98.031-66.526-24.713-7.492-49.707-11.179-75.477-11.708-15.445 1.161-31.13 0.887-46.251 3.729-56.081 10.539-98.116 41.813-127.795 90.086-17.954 29.184-26.513 61.73-32.973 94.976-2.594 13.372-4.267 27.025-7.936 40.107-9.216 33.195-2.577 63.019 16.896 90.709 27.034 38.468 63.3 64.981 106.411 82.773 41.173 17.007 84.105 23.723 128.401 20.625 29.577-2.065 57.404-10.342 81.271-28.791 46.507-35.925 76.715-82.688 89.37-139.947 4.267-19.388 4.267-39.765 5.973-59.716 0.896-10.726-1.997-21.803 4.352-32 1.604-2.603 0.623-7.083 0.154-10.624zM865.365 633.344c-13.312 12.476-28.535 22.639-47.42 25.771-5.606 0.922-10.479 1.28-15.804-1.28-9.011-4.352-18.389-7.936-27.563-11.947-3.84-1.707-4.966-4.668-3.806-8.841 4.147-14.908 8.346-29.824 12.032-44.851 1.51-6.11 2.423-12.527 2.475-18.807 0.026-5.7-3.157-10.257-8.363-13.201-6.929-3.925-17.015-0.478-17.169 6.929-0.444 22.298-13.116 41.728-14.268 63.795-0.171 3.533-5.231 5.547-8.704 4.062-1.673-0.717-3.371-1.391-4.949-2.244-17.527-9.404-17.92-9.515-12.407-29.15 5.922-21.052 12.57-41.899 19.115-62.754 2.748-8.789 0.196-16.213-5.274-22.81-1.579-1.877-4.506-2.953-7.023-3.669-4.070-1.135-10.837 2.304-11.008 5.931-1.408 26.487-19.49 46.814-26.095 71.356-0.358 1.348-2.603 2.756-4.156 3.021-1.024 0.171-3.115-1.382-3.516-2.577-1.741-5.171-3.345-10.453-4.386-15.812-0.495-2.534-0.597-6.025 0.768-7.919 10.496-14.677 10.778-32.7 16.384-48.947 7.731-22.383 14.191-45.201 21.606-67.695 2.534-7.68 1.408-14.268-2.987-20.676-2.449-3.61-9.788-3.413-11.605 0.538-5.308 11.546-10.394 23.177-15.642 34.731-0.324 0.742-1.34 1.169-2.048 1.741-0.853-1.195-1.843-2.321-2.5-3.627-0.393-0.768-0.427-1.809-0.316-2.688 1.86-16.282 3.388-32.597 5.905-48.794 0.631-4.028 3.533-8.823 6.869-11.136 43.179-29.969 89.685-45.739 141.79-27.341 40.875 14.438 70.801 41.404 83.115 84.198 3.738 12.919 3.669 26.914 5.342 40.422 0.102 53.564-19.814 98.091-58.385 134.246z"></path>
</symbol>
<symbol id="delicious" viewBox="0 0 1024 1024">
  <title>delicious</title>
  <path d="M915.226 573.85c-4.915-21.675-4.42-43.503-4.053-65.382 0.154-10.052 0.58-20.087 0.546-30.123-0.154-32.853-1.604-65.758-0.401-98.577 1.707-45.764-5.717-91.051-5.376-136.687 0.043-3.601-0.572-7.339-1.621-10.786-4.437-14.251-5.376-28.928-3.046-43.383 3.072-19.354-3.84-33.963-18.304-45.739-9.165-7.441-18.466-14.805-28.279-21.359-6.861-4.548-14.891-6.118-23.407-6.468-17.28-0.734-34.517-2.833-51.797-3.78-8.149-0.452-16.452-0.256-24.533 0.819-28.245 3.78-56.303 4.181-84.395-1.195-8.943-1.69-18.193-2.048-27.29-2.193-47.514-0.802-94.95 1.417-141.952 8.192-20.011 2.901-39.876 4.156-59.972 4.241-19.166 0.085-38.349 0.017-57.515 0.017v-0.444c-20.087 0-40.218 0.683-60.262-0.171-31.215-1.314-61.798 4.966-92.757 6.63-12.493 0.666-24.832 5.419-37.188 8.516-24.252 6.059-39.595 22.357-47.753 44.971-5.205 14.481-9.37 29.747-11.051 44.971-3.456 31.727-7.39 63.462-6.656 95.505 0.512 23.723-0.017 47.479 0.051 71.219 0.034 10.121-0.384 20.070-4.301 29.611-9.933 24.064-12.331 49.271-12.169 75.042 0.119 19.132-1.024 38.187-3.243 57.301-2.048 17.903-0.085 36.369 0.939 54.554 1.707 30.037 6.434 60.1 5.461 90.027-0.939 28.331-0.307 56.354 1.365 84.608 1.809 30.379 11.657 56.704 31.462 79.804 6.4 7.45 13.312 12.868 22.938 12.885 16.708 0.034 32.273 4.403 48.026 9.421 12.083 3.84 24.798 5.871 37.402 7.697 30.66 4.437 61.355 8.789 92.126 12.288 31.659 3.61 63.42 8.226 95.215 8.755 73.83 1.237 147.712-0.299 221.551 0.512 29.935 0.324 57.771-7.424 85.163-17.306 13.935-5.052 27.785-8.414 42.385-9.387 9.114-0.597 18.261-0.802 27.366-0.981 9.438-0.171 18.577-2.372 25.515-8.474 11.639-10.214 23.91-20.335 33.041-32.597 15.403-20.736 25.719-43.605 23.45-71.083-1.587-19.029-1.109-38.434 0.7-57.463 3.652-38.997 9.045-77.824 13.201-116.77 0.939-9.003 1.391-18.534-0.572-27.238zM138.863 832.683c-1.451-0.171-2.577-3.115-3.84-4.83 1.877-1.399 3.721-3.78 5.649-3.84 1.399-0.085 2.935 2.927 5.103 5.325-2.953 1.536-5.069 3.584-6.912 3.345zM811.238 150.596l-0.939 1.382-0.538-1.587 1.476 0.205zM761.805 177.681c3.43 1.169 7.066 2.347 9.796 4.548 1.536 1.22 2.662 5.487 1.732 6.741-4.284 5.828-9.062 11.375-14.199 16.538-23.228 23.296-44.476 48.23-64.273 74.581-25.916 34.449-47.898 71.219-65.297 110.481-7.697 17.348-11.836 36.284-17.169 54.613-0.614 2.082 0.734 6.144 2.389 7.049s5.658-0.196 7.253-1.792c9.028-8.994 18.295-17.835 26.138-27.793 6.716-8.533 11.802-18.406 17.408-27.819 28.544-47.812 58.342-94.66 94.293-137.506 14.592-17.348 25.899-37.461 38.596-56.354 3.098-4.608 5.914-9.472 12.203-9.779 1.621-0.085 3.652 0.785 4.847 1.903 1.109 1.024 2.287 3.499 1.766 4.454-2.935 5.598-6.229 11.008-9.643 16.367-25.557 39.953-51.285 79.804-76.715 119.834-12.262 19.354-20.591 40.55-28.416 62.037-5.888 16.23-13.372 31.898-20.19 47.804-5.589 13.056-16.128 19.567-29.679 21.077-11.776 1.34-23.663 1.69-31.718 2.219-12.937 0-22.067 0.324-31.164-0.085s-12.646-4.574-12.544-14.225c0.145-11.861 0.529-23.723 1.041-35.584 0.486-11.196 3.866-21.675 10.598-30.566 6.596-8.704 13.252-17.681 21.367-24.849 34.577-30.532 61.841-66.918 86.272-105.617 14.592-23.151 28.698-46.618 43.093-69.871 7.168-11.494 9.984-12.544 22.221-8.431zM653.431 237.013c9.071-15.77 18.688-31.198 28.006-46.797 6.656-11.11 17.135-15.906 29.286-17.579 1.963-0.256 4.284 2.389 6.263 3.618-0.563 2.304-0.58 4.215-1.434 5.581-3.396 5.376-6.613 10.965-10.684 15.821-35.703 42.65-65.195 89.702-96.819 135.253-7.748 11.153-16.555 21.564-25.054 32.171-0.469 0.58-2.85-0.068-4.181-0.58-0.597-0.23-1.135-1.553-1.050-2.304 0.282-2.688 0.367-5.547 1.451-7.936 2.27-4.924 4.983-9.711 7.834-14.336 2.867-4.642 5.649-9.472 9.284-13.457 24.235-26.556 39.441-58.761 57.105-89.446zM582.758 217.421c13.85-10.155 25.532-23.322 41.728-30.174 1.306-0.563 3.738-0.051 4.864 0.887 1.075 0.913 1.809 3.157 1.536 4.582-0.529 2.62-1.673 5.163-2.987 7.509-16.077 28.476-32.171 56.96-48.384 85.333-2.338 4.096-7.228 5.939-8.841 3.772-1.536-2.099-2.901-4.497-3.55-6.98-0.683-2.594-0.384-5.41-0.751-13.44 2.449-10.001 5.871-24.986 9.916-39.799 1.152-4.233 3.183-9.284 6.468-11.691zM563.217 212.386c1.707-2.219 5.888-2.79 9.105-3.456 0.794-0.171 3.209 2.304 3.012 3.072-1.331 5.094-3.004 10.172-8.832 11.947-0.785 0.239-1.664 0.060-2.56 0.060-0.478-0.631-1.451-1.331-1.451-2.048 0-3.268-0.905-7.424 0.725-9.557zM187.221 676.992c-1.263-0.717-3.004-1.749-3.268-2.953-2.185-9.668-4.301-19.371-5.973-29.133-0.887-5.316-0.879-10.803-1.536-19.712-2.133-9.856 8.576-12.885 16.939-17.775 3.157-1.843 4.983-0.128 5.376 2.662 0.657 4.437 0.683 9.003 0.879 13.483 0.256 5.683 1.92 10.325 7.185 13.602 1.57 0.964 2.884 5.103 2.082 6.554-6.093 10.982-12.715 21.675-19.285 32.427-0.341 0.597-1.877 1.135-2.389 0.853zM210.142 740.241c-0.171 0.913-2.953 2.304-4.011 1.937-10.445-3.669-16.777-16.384-12.203-25.83 1.075-2.253 6.042-3.302 9.301-3.516 2.048-0.137 5.675 1.963 6.144 3.703 1.152 4.198 0.87 8.789 1.365 16.751 0 0.017 0.085 3.567-0.597 6.963zM280.678 738.825c-3.925 6.63-11.366 8.875-18.884 6.571-2.816-0.87-5.393-4.181-6.929-6.997-1.792-3.328-1.109-8.107 2.389-9.284 11.145-3.755 18.142-10.82 21.641-21.982 0.512-1.681 4.881-3.883 6.033-3.243 2.876 1.562 4.89 4.642 7.979 7.893-4.13 9.387-7.313 18.731-12.228 27.051zM327.424 833.655c-10.411 12.783-24.115 11.366-32.768-3.379-0.768-1.297-0.768-3.686-0.068-4.983 0.751-1.365 2.765-2.048 4.318-3.072 9.37 2.372 18.833 4.71 28.203 7.322 0.512 0.171 0.981 3.311 0.316 4.122zM341.572 661.675c-7.637-14.362-15.633-28.544-22.443-43.264-4.437-9.626 0.222-19.115 10.223-24.61 0.717-0.427 1.749-0.316 2.645-0.469 1.493 0.879 3.729 1.34 4.378 2.645 4.949 9.643 8.841 19.951 14.541 29.133 7.62 12.331 5.18 23.979 0 35.866-0.666 1.536-2.167 2.918-3.618 3.866-3.635 2.415-4.634-1.109-5.734-3.157zM342.289 546.236c0-6.187 5.683-10.453 12.902-9.685 5.973 0.614 10.24 5.291 9.421 10.325-1.024 6.093-7.339 11.264-13.056 10.581-4.762-0.538-9.267-6.007-9.267-11.221zM387.729 806.946c-1.485 1.57-3.755 2.799-5.888 3.268-2.577 0.563-5.376 0.341-8.055 0.171-24.73-1.28-27.392-4.156-27.051-31.258 0.154-2.253 0.256-6.741 0.836-11.179 0.171-1.161 1.792-2.133 2.756-3.191 0.631 0.649 1.792 1.237 1.835 1.92 0.887 10.069 6.886 15.497 15.479 20.181 6.852 3.755 12.373 10.001 18.287 15.36 1.169 1.109 2.321 4.181 1.809 4.727zM440.226 793.89c-1.28-0.597-2.022-2.304-3.499-4.156 1.562-1.536 3.021-3.482 4.949-4.548 0.683-0.367 3.226 1.109 3.755 2.27 1.254 2.876-2.714 7.612-5.205 6.426zM471.202 743.202c-1.058-0.427-1.775-1.647-2.534-2.756-0.358 0-0.725 0-1.084-0.017 0-0.256-0.137-0.401-0.171-0.631-5.094 0.29-10.214 0.768-15.309 0.666-2.517-0.034-5.035-1.28-7.424-2.304-0.171-0.085 0.358-3.14 1.28-4.181 2.987-3.371 6.545-6.81 11.435-4.54 4.548 2.099 9.387 4.42 10.027 10.368l0.742-0.051c0.171 0.205 0.341 0.461 0.512 0.7 1.297 0.017 2.611 0 3.84 0.324 1.152 0.282 2.116 1.263 3.157 1.963-1.51 0.188-3.243 0.956-4.471 0.461zM491.426 667.452c-5.359 1.28-10.522-1.792-12.305-7.117-0.256-0.717 0.017-1.997 0.546-2.517 1.109-1.084 2.517-1.818 4.898-3.43 2.748 2.953 5.803 5.931 8.38 9.233 0.452 0.58-0.683 3.627-1.536 3.84zM500.599 207.505c-0.87 2.594-1.835 5.205-3.2 7.543-8.337 14.251-8.021 29.457-5.803 45.107 1.536 10.786 2.586 21.675 3.243 32.529 1.621 27.281 2.927 54.579 4.326 81.869 0.137 2.731 0.256 5.461 0.171 8.192-1.169 30.942-2.202 61.892-3.703 92.826-0.563 11.75-5.419 16.64-16.521 17.92-28.954 3.328-57.882 6.571-86.869 9.557-5.35 0.538-11.093 0.64-16.213-0.768-21.649-6.042-42.923-4.523-64.717-0.060-17.766 3.635-36.011 5.205-54.153 6.716-15.42 1.28-30.848 1.553-45.995 5.564-8.209 2.185-12.288-1.263-12.39-9.335-0.196-15.479-0.137-30.976-0.154-46.507v-49.237h-0.649c0-25.515 0.538-51.055-0.171-76.578-0.683-26.385-1.707-52.821-4.156-79.104-1.604-16.998 4.13-30.165 15.053-42.103 1.195-1.348 2.5-2.645 3.652-4.053 19.004-23.1 44.459-31.019 73.045-29.525 20.079 1.058 39.876 1.092 59.938-0.973 17.126-1.724 34.611-0.905 51.883-0.171 20.924 0.879 41.813 2.577 62.635 4.506 9.941 0.939 19.883 2.645 29.525 5.12 10.692 2.799 14.575 10.923 11.221 20.992zM841.847 770.219c-2.475 10.598-4.497 21.385-7.987 31.659-5.444 16.128-15.829 28.629-30.925 36.821-10.411 5.632-20.736 11.418-31.386 16.521-8.533 4.122-17.98 5.325-25.882-0.768-7.219-5.572-14.677-6.144-23.1-5.444-29.952 2.432-59.989 4.233-89.899 6.963-15.403 1.399-30.635 4.335-45.995 6.383-2.423 0.341-6.059 0.563-7.322-0.819-3.004-3.243 0.068-6.434 1.792-9.498 3.106-5.564 6.374-11.093 8.909-16.93 1.775-4.096 2.901-8.602 3.473-13.056 0.717-5.692-1.024-10.837-6.263-14.106-5.248-3.268-10.82-2.748-15.36 0.785-5.692 4.463-10.581 9.967-15.991 14.797-0.768 0.683-2.543 0.213-3.857 0.282-0.051-1.741-0.768-3.823-0.068-5.163 2.56-4.813 5.837-9.233 8.397-14.037 6.827-12.851 13.952-25.583 19.917-38.827 4.548-10.095-0.068-17.007-11.563-19.507-1.732-0.384-4.036 0.563-5.333-0.256-1.903-1.229-4.523-3.541-4.437-5.308 0.657-19.354 4.506-37.769 15.94-54.118 3.567-5.069 6.059-11.179 7.799-17.186 2.27-7.748-2.389-13.551-11.469-13.824-5.12-0.171-9.131-0.111-9.557-6.195-1.758-25.446-3.439-50.901-5.035-76.348-0.307-4.548-0.239-9.131-0.060-13.687 0.341-9.54 3.362-14.054 11.793-15.906 10.65-2.364 21.402-5.001 32.23-5.666 47.292-2.85 94.609-6.767 142.054-4.719 26.402 1.143 52.77 2.816 79.147 4.352 5.137 0.29 9.114 3.226 9.045 8.277-0.111 12.22 5.342 22.699 8.405 33.963 4.463 16.486 5.461 34.099 6.417 51.337 1.007 18.176 0.222 36.48 0.222 54.733 0.23 28.228 2.347 56.593-4.096 84.48zM847.070 430.080c-0.597 3.379-2.287 6.886-4.403 9.617-13.355 17.297-14.66 17.681-37.094 13.466-1.792-0.341-3.499-1.169-5.291-1.382-23.893-2.679-25.429-5.419-8.055-25.020 12.672-14.31 25.139-28.672 36.181-44.339 3.584-5.052 8.96-8.849 13.705-12.996 2.475-2.133 8.192 0.41 8.465 3.772 0.597 7.236 0.896 14.507 1.451 23.996-1.391 9.591-2.901 21.308-4.949 32.905zM850.765 264.166c-2.731 8.875-4.983 17.553-1.28 26.667 2.33 5.734 0.299 11.119-3.115 15.36-5.666 6.997-11.383 14.455-18.569 19.755-14.31 10.564-24.875 23.723-33.391 39.134-5.231 9.557-11.605 18.517-17.715 27.563-3.038 4.523-5.862 9.702-10.095 12.8-12.399 9.079-19.43 21.214-23.569 35.601-2.517 8.687-8.9 13.636-17.382 15.684-2.304 0.563-5.7 0.23-7.381-1.169-1.664-1.382-3.157-5.205-2.389-6.912 4.727-10.837 8.943-22.144 15.488-31.829 37.803-55.919 67.78-116.531 104.747-172.919 2.5-3.814 4.437-8.047 7.296-11.52 1.903-2.304 3.072-7.851 7.919-4.25 1.98 1.468 3.157 4.318 4.181 6.741 0.683 1.621 0.452 3.584 0.768 7.083-1.536 6.4-3.115 14.421-5.513 22.212z"></path>
</symbol>
<symbol id="500px" viewBox="0 0 1024 1024">
  <title>500px</title>
  <path d="M1010.15 534.101c-12.971-54.221-42.837-96.111-90.197-125.184-13.167-8.090-27.58-14.182-41.728-20.582-4.838-2.202-10.479-3.012-15.821-3.712-30.063-3.925-60.032-0.239-90.027 1.314-1.792 0.102-3.541 0.717-5.359 1.007-36.719 5.845-70.468 18.244-98.867 43.264-7.39 6.485-8.772 6.315-16.589 0.273-26.419-20.378-56.38-33.382-87.808-43.605-6.042-1.98-12.203-3.789-18.057-6.272-15.684-6.682-32.171-6.929-48.503-4.898-23.68 2.944-46.336 9.574-66.697 22.767-22.246 14.421-44.544 28.757-61.44 49.749-1.707 2.133-3.61 4.164-5.658 5.931-3.046 2.62-6.434 3.157-9.779 0.427-7.765-6.315-15.701-12.442-23.245-19.063-14.831-13.082-32.384-19.729-51.516-23.723-11.725-2.432-23.296-4.582-35.243-3.891-12.698 0.734-25.404 1.707-38.084 2.697-6.502 0.512-9.421-2.884-8.363-10.138 0.41-2.705 0.99-5.393 1.451-8.090 2.441-14.746 4.395-17.451 18.961-17.527 23.893-0.145 47.155-4.71 70.622-7.996 15.3-2.15 30.379-6.98 45.687-7.799 13.030-0.708 24.798-5.632 37.376-7.313 6.895-0.922 11.307-5.35 14.336-11.477 3.277-6.69 4.267-13.705 5.009-21.094 2.389-24.235-3.533-47.104-10.385-69.845-3.243-10.701-11.034-16.845-21.931-17.835-19.132-1.766-38.417-2.5-57.301 1.809-28.587 6.528-57.404 10.138-86.767 8.764-10.035-0.478-20.096-0.085-30.148-0.068-14.592 0.683-29.218 2.33-43.776 1.818-17.527-0.623-34.526 2.534-51.712 4.634-8.337 1.024-10.769 4.113-10.948 12.749-0.307 15.531-0.128 31.061-0.742 46.566-0.631 15.462-2.415 30.891-2.953 46.336-1.024 31.010-0.785 61.995-4.369 92.962-2.415 20.762-2.185 42.069-0.7 62.942 1.331 18.637 12.373 33.57 34.645 26.197 6.042-2.005 12.058-4.164 18.193-5.871 6.101-1.673 12.271-3.533 18.517-4.122 10.88-1.024 21.879-1.92 32.768-1.468 13.687 0.572 27.563 2.304 38.298 12.169 17.408 15.915 28.57 35.499 31.829 58.965 1.109 8.021 0.973 16.512-0.239 24.533-1.109 7.253-5.086 13.585-12.817 16.469-6.827 2.526-13.619 5.171-20.25 8.107-25.984 11.52-49.732 8.047-71.031-10.701-7.535-6.622-14.635-13.756-21.76-20.821-3.891-3.857-7.211-8.294-11.179-12.049-8.653-8.158-16.435-8.909-27.537-4.267-21.419 8.977-39.211 23.040-55.654 38.938-14.387 13.935-18.159 31.104-12.766 50.065 6.144 21.658 18.381 39.902 35.447 54.238 38.144 32.051 81.519 51.413 132.318 51.029 11.887-0.102 23.748-0.29 35.618-0.538 17.681-0.384 34.97-4.181 49.749-13.346 24.747-15.334 53.035-24.781 74.837-44.971 3.669-3.413 8.158-3.755 12.595-1.229 15.036 8.602 30.396 16.674 44.971 26.001 20.224 12.971 42.095 21.53 65.178 27.588 16 4.181 32.486 4.642 48.597 7.287 30.148 4.949 57.882-1.792 85.197-13.056 26.385-10.897 50.449-25.404 70.886-45.679 7.765-7.723 8.303-7.68 18.901-1.92 20.011 10.863 40.038 21.786 59.674 33.34 33.502 19.712 70.229 24.875 107.998 23.919 17.271-0.444 34.475-4.070 49.86-12.996 14.165-8.243 27.733-17.749 42.411-24.917 12.971-6.349 21.777-16.094 29.952-27.255 17.442-23.868 28.655-50.739 38.161-78.421 2.304-6.775 3.797-14.165 4.011-21.333 0.836-30.080 0.99-60.092-6.127-89.788zM110.165 673.331c-1.485 3.226-4.053 6.007-6.434 8.721-3.302 3.738-5.419 10.923-11.716 8.107-2.27-1.024-1.835-8.073-2.304-10.684 1.903-10.206-0.196-17.894-3.814-25.429-0.469-0.99 0.802-3.524 1.963-4.437s3.959-1.451 4.745-0.725c6.016 5.461 11.93 11.042 17.297 17.101 1.28 1.476 1.195 5.291 0.256 7.339zM136.397 724.685c-0.751 1.638-5.205 3.174-6.963 2.423-3.004-1.263-7.535-4.574-7.339-6.69 0.956-11.887 4.608-23.245 12.928-32.137 1.707-1.818 6.699-0.964 10.086-0.555 1.237 0.154 2.202 2.577 3.285 3.968 0.119 0.887 0.58 1.92 0.299 2.645-3.959 10.18-7.791 20.42-12.288 30.345zM212.429 696.627c-0.512 0.358-1.229 0.427-1.894 0.529l-0.316 0.341-0.256-0.017c-0.956 12.937-10.018 22.494-14.438 34.005-0.785 2.065-4.036 4.318-6.298 4.471-6.246 0.444-12.629 0.256-18.833-0.64-1.707-0.256-4.369-4.096-4.113-5.939 0.981-7.083 2.56-14.123 4.634-20.975 3.123-10.411 4.181-11.204 15.104-11.494 7.979-0.222 15.974 0.324 23.962 0.546 0-0.085 0.026-0.154 0.034-0.23 0.171-0.043 0.341-0.060 0.529-0.085l2.287-2.432c-0.137 0.666-0.034 1.638-0.427 1.903zM959.479 640.794c-0.358 0.853-0.896 1.664-1.007 2.534-3.516 30.208-23.893 47.787-47.275 63.13-3.789 2.5-7.526 5.146-11.435 7.475-6.673 4.011-7.808 3.866-14.225-1.365-2.799-2.304-5.333-4.966-8.277-7.031-4.352-3.055-12.058-0.256-13.244 5.103-1.195 5.257-1.263 10.752-2.014 16.128-0.529 3.772-2.253 6.81-6.315 7.834-7.398 1.877-14.814 0-17.169-4.727-1.604-3.217-2.517-6.767-3.78-10.138-1.903-5.077-3.217-10.47-5.854-15.121-5.163-9.131-15.65-9.796-22.63-1.775-1.766 2.014-2.765 4.693-4.215 6.997-2.33 3.755-5.419 4.241-9.045 1.809-5.171-3.482-10.189-2.731-15.309 0.307-3.9 2.304-6.827 0.802-8.704-3.021-2.441-4.907-4.506-10.001-7.228-14.746-4.864-8.491-9.259-9.472-20.565-5.205-7.612 2.876-9.19 2.475-13.039-3.652-5.803-9.25-11.281-18.714-17.365-27.776-3.516-5.248-8.32-5.308-13.909-1.34-2.671 1.92-5.427 4.523-8.388 4.915-1.835 0.239-3.925-3.541-6.298-4.753-2.099-1.075-5.291-2.219-7.031-1.323-3.379 1.724-0.154 4.608 0.102 7.057 0.282 2.517 0.341 5.060 0.495 7.595 0.171-0.043 0.341-0.026 0.512-0.068 0.051 0.341 0.068 0.7 0.085 1.050l2.27 2.219c-0.666-0.213-1.647-0.239-1.903-0.683s-0.316-0.973-0.358-1.536l-0.572-0.555-0.026-0.427c-7.765 1.604-12.826-5.052-19.593-6.775-7.313-1.877-9.131-2.347-12.629 5.478-5.786 13.013-16.538 21.504-26.112 31.121-3.174 3.2-6.4 2.116-9.301-0.853-1.28-1.28-2.645-2.628-4.207-3.473-9.865-5.325-20.907-1.143-24.098 9.506-1.263 4.25-1.852 9.045-1.348 13.423 1.109 9.668-4.301 12.561-13.269 12.425-1.818-0.034-3.635 0.085-5.461 0.102-19.61 0.256-19.575 0.256-27.051-18.432-1.024-2.526-2.219-5.009-3.584-7.339-3.055-5.163-7.68-7.526-13.696-7.031-6.016 0.512-10.197 3.772-12.57 9.097-1.092 2.406-1.306 5.248-1.775 7.91-0.887 4.983 1.621 11.802-5.649 13.508-4.915 1.161-8.166-3.004-11.23-6.4-1.22-1.34-2.33-2.833-3.721-4.011-6.613-5.581-9.916-5.239-18.347 1.766-6.366 5.274-9.114 4.915-11.861-2.389-2.193-5.888-3.712-12.075-5.188-18.21-1.485-6.178-2.586-12.442-3.84-18.671-2.048-10.411-11.989-13.696-21.248-8.806-3.925 2.082-7.023 5.692-10.812 8.107-0.734 0.478-3.883-1.050-4.284-2.219-1.724-5.12-2.475-10.539-4.292-15.616-1.792-5.035-3.567-11.042-9.882-11.776-5.060-0.572-7.765 3.883-10.274 7.731-0.981 1.502-1.937 3.046-3.132 4.352-1.988 2.167-5.692 1.536-6.639-1.229-2.62-7.706-5.069-15.488-7.509-23.253-1.092-3.439-1.655-7.083-3.089-10.377-3.814-8.789-17.579-10.3-22.579-2.193-5.683 9.259-12.373 18.543-11.981 30.037 0.341 10.547-5.103 15.804-13.141 21.589-9.438 6.844-17.152 16.213-25.173 24.917-5.205 5.632-9.515 6.007-16.299 1.852-6.016-3.712-11.537-0.828-11.691 6.007-0.273 10.982-5.922 16.469-15.189 19.84-4.267 1.553-8.516 3.311-12.919 4.403-2.347 0.572-5.803 0.87-7.296-0.427-1.51-1.306-2.193-4.949-1.596-7.125 1.485-5.205 4.318-10.052 5.854-15.258 1.229-4.164 2.458-8.841 1.707-12.945-0.785-4.386 0.384-7.083 3.584-9.045 3.883-2.364 8.363-3.738 12.151-6.195 26.112-16.811 42.718-39.228 41.335-71.885-0.469-10.94-0.256-21.504 4.25-32.085 3.652-8.533 1.553-17.954-2.449-26.513-3.388-7.287-2.278-13.909 1.86-20.693 3.755-6.212 6.912-12.843 9.813-19.507 3.328-7.637 1.468-13.056-5.769-19.029-4.736-3.925-10.82-3.396-14.421 1.391-1.604 2.159-3.012 4.506-4.352 6.869-7.543 13.542-7.023 17.237-20.361 4.113-2.586-2.534-6.059-4.267-8.235-7.083-1.408-1.792-2.022-5.009-1.536-7.287 0.725-3.499 2.441-6.895 4.267-10.018 5.973-10.325 4.352-20.309-0.683-30.208-0.316 0.043-0.623 0.051-0.939 0.119l-0.393-0.401c-10.069 3.883-18.731 9.523-23.723 19.712-4.975 10.155-11.674 15.488-24.021 11.008-9.54-3.447-19.712-2.338-29.628 0.111-5.265 1.306-10.718 2.005-16.128 2.679-4.727 0.597-8.823-0.145-10.94-5.495-4.318-10.889-12.032-12.493-21.999-7.62-1.587 0.768-3.635 1.399-5.231 1.050-1.399-0.324-2.645-1.988-3.618-3.311-0.358-0.529-0.085-2.005 0.41-2.586 1.792-2.005 3.601-4.070 5.751-5.632 5.914-4.233 12.134-8.055 17.98-12.373 5.393-3.951 9.344-9.045 7.057-16.23-1.852-5.888-6.699-8.243-12.604-8.533-1.818-0.102-3.652 0.043-5.461-0.145-4.079-0.41-5.99-2.116-5.717-6.852 0.794-13.338 4.267-24.781 16.469-32.512 6.571-4.156 12.288-9.685 18.313-14.677-0.060-0.469-0.051-0.939-0.119-1.408 0.256-0.137 0.41-0.324 0.649-0.469-3.268-15.377-5.146-16.725-19.917-17.22-2.33-0.085-6.298-1.169-6.571-2.406-0.469-2.202 0.614-5.692 2.304-7.211 5.427-4.804 11.52-8.832 17.152-13.397 2.091-1.673 3.789-3.9 5.376-6.076 4.608-6.332 1.417-15.787-6.033-17.476-3.482-0.794-7.202-0.529-10.786-0.956-3.755-0.452-7.031-1.707-7.646-6.144-0.853-6.118 1.852-12.629 6.451-13.568 6.17-1.237 12.501-2.167 18.773-2.27 21.845-0.358 43.708 0 65.536-0.563 8.977-0.222 17.92-2.219 26.88-3.226 9.028-0.998 18.057-2.048 27.093-2.534 9.933-0.512 19.729 0.051 29.525-3.584 12.117-4.471 23.296 0.956 33.493 7.151 2.586 1.579 4.779 6.059 4.779 9.182-0.085 6.212-1.306 12.57-3.055 18.577-1.314 4.523-5.231 7.305-10.155 7.979-50.227 6.886-100.011 16.896-150.528 21.845-7.595 0.751-10.633 5.205-14.046 10.923-3.925 6.622-0.819 16.179-8.619 20.992 0.085 0.427 0.171 0.742 0.256 1.195-0.273 0.222-0.529 0.452-0.794 0.683 2.833 22.144 0.981 44.117-2.688 66.031-1.732 10.342 2.534 16.333 12.459 16.111 8.96-0.188 18.432-0.154 26.795-2.927 17.033-5.649 33.963-4.284 51.046-2.261 1.963 0.23 3.686 2.731 5.461 4.437 0.341-0.128 0.649-0.307 0.99-0.427 0.128 0.23 0.213 0.469 0.341 0.708 6.127-1.109 11.989-0.614 17.545 2.731 7.782 4.676 15.821 8.96 23.433 13.926 2.884 1.894 6.144 4.762 7.083 7.851 3.618 11.605 11.418 20.676 17.323 30.891 3.191 5.513 7.808 11.119 8.422 17.033 1.536 14.652 10.667 19.43 23.040 22.81 6.98 1.903 12.868 0.794 18.091-2.901 15.241-10.752 27.708-24.781 32.188-42.726 7.049-28.126 24.636-45.875 49.28-58.368 7.287-3.695 15.215-6.298 22.135-10.564 20.395-12.544 42.726-15.241 65.809-13.892 6.187 0.358 12.629 2.133 18.304 4.693 8.277 3.695 16.384 8.081 23.782 13.312 14.131 9.984 27.853 20.582 41.472 31.266 13.107 10.283 22.374 23.893 31.36 37.683 1.988 3.046 3.908 6.144 6.059 9.071 2.167 2.97 6.741 3.379 9.557 0.555 8.363-8.26 18.389-15.019 22.673-26.854 3.584-9.924 11.486-16.401 20.224-21.504 20.48-11.887 40.738-24.346 61.952-34.773 26.906-13.227 56.294-14.455 85.555-12.117 7.731 0.614 15.667 4.907 22.554 9.097 25.941 15.804 48.068 36.207 67.55 59.332 11.469 13.602 17.801 29.798 17.186 47.889-0.452 13.722 0.819 27.102 2.731 40.738 3.012 21.649 3.499 43.691-5.094 64.7zM598.289 535.492c-43.802-29.756-90.709-39.919-142.182-19.49-19.388 7.68-32.171 20.309-39.356 38.912-3.866 10.086-7.151 20.949-7.834 31.633-1.937 30.592 8.875 55.253 37.103 70.417 14.737 7.91 30.268 12.373 53.12 11.93 1.246-0.196 8.585-0.657 15.514-2.586 24.508-6.827 48.896-14.080 73.259-21.35 10.513-3.132 16.555-10.667 19.746-20.941 2.133-6.878 4.181-13.85 7.168-20.378 11.46-25.173 6.17-52.71-16.529-68.139zM548.779 595.456c-19.055 18.748-42.522 26.155-68.71 24.917-17.579-0.836-29.696-14.507-29.969-32.171-0.051-3.627 0.034-7.279 0.486-10.854 2.389-19.328 13.85-30.891 33.399-33.28 5.35-0.657 10.837-0.111 16.265-0.111l0.299-1.852 28.954 6.263c8.405 1.792 14.558 7.1 20.156 13.116 9.267 9.941 8.96 24.277-0.879 33.963zM897.502 534.989c-14.78-28.476-30.234-38.349-65.28-26.607-36.181 12.134-69.7 31.215-96.546 59.699-2.475 2.645-4.796 5.495-6.801 8.499-3.601 5.419-3.371 12.757 1.067 17.775 6.596 7.484 13.696 14.532 20.531 21.82 27.819 29.636 63.488 40.559 102.656 42.897 4.54 0 9.088-0.196 13.628 0.034 13.252 0.683 22.229-5.973 29.67-16.154 12.254-16.759 18.466-34.833 16.435-56.021-1.758-18.475-7.031-35.891-15.36-51.934zM864.137 601.003c-1.536 0.512-3.55-0.316-5.333-0.717-13.244-2.953-26.761-5.171-39.68-9.182-8.96-2.773-19.712-2.901-25.489-12.501 5.487-8.064 14.933-9.933 22.733-14.225 9.532-5.222 19.396-9.941 29.483-13.943 2.475-0.981 8.047 0.64 9.429 2.816 8.38 13.312 9.557 28.86 13.5 42.214-2.475 3.072-3.294 5.094-4.642 5.547z"></path>
</symbol>
</defs>
</svg>
